<svg version="1.1" xmlns="http://www.w3.org/2000/svg" xmlns:xlink="http://www.w3.org/1999/xlink" width="1155.712" height="292"><style xmlns="http://www.w3.org/1999/xhtml"></style><defs/><g transform="translate(0,0)"><g><rect fill="#FFFFFF" stroke="none" x="0" y="0" width="1155.712" height="292"/></g><g transform="matrix(1,0,0,1,255.284,41.5)"><g transform="translate(0,0)"><g transform="translate(-478,-80) translate(222.716,38.5) matrix(1,0,0,1,0,0)"><g><path fill="none" stroke="#000000" d="M 479.784 46 L 259.784 135.952" stroke-miterlimit="10" stroke-width="2"/></g></g></g></g><g transform="matrix(1,0,0,1,475.284,41.5)"><g transform="translate(0,0)"><g transform="translate(-479,-84) translate(3.716000000000008,42.5) matrix(1,0,0,1,0,0)"><g><path fill="none" stroke="#000000" d="M 479.784 46 L 829.784 200" stroke-miterlimit="10" stroke-width="2"/></g></g></g></g><g transform="matrix(1,0,0,1,65.28399999999993,131.452)"><g transform="translate(0,0)"><g transform="translate(-217,-244) translate(151.71600000000007,112.548) matrix(1,0,0,1,0,0)"><g><path fill="none" stroke="#000000" d="M 259.784 135.952 L 69.78399999999993 200" stroke-miterlimit="10" stroke-width="2"/></g></g></g></g><g transform="matrix(1,0,0,1,255.284,131.452)"><g transform="translate(0,0)"><g transform="translate(-684,-280) translate(428.716,148.548) matrix(1,0,0,1,0,0)"><g><path fill="none" stroke="#000000" d="M 259.784 135.952 L 459.78399999999993 200" stroke-miterlimit="10" stroke-width="2"/></g></g></g></g><g transform="translate(0,0) matrix(1,0,0,1,230,100)"><g><g transform="translate(0,0) scale(1,1) translate(-20.216,-14.048)"><g><g><g><path fill="#8C3123" stroke="rgb(0,0,0)" d="M 50.001 67.401 L 74.985 73.447 L 74.985 26.54 L 50.001 32.589 L 50.001 67.401 Z" stroke-opacity="0" stroke-miterlimit="10"/></g><g><path fill="#E05243" stroke="rgb(0,0,0)" d="M 74.983 26.54 L 79.784 28.94 L 79.784 71.062 L 74.983 73.46 L 74.983 26.54 Z" stroke-opacity="0" stroke-miterlimit="10"/></g><g><path fill="#E05243" stroke="rgb(0,0,0)" d="M 50.001 67.401 L 25.017 73.447 L 25.017 26.54 L 50.001 32.589 L 50.001 67.401 Z" stroke-opacity="0" stroke-miterlimit="10"/></g><g><path fill="#8C3123" stroke="rgb(0,0,0)" d="M 25.017 26.54 L 20.216 28.94 L 20.216 71.062 L 25.017 73.46 L 25.017 26.54 Z" stroke-opacity="0" stroke-miterlimit="10"/></g><g><path fill="#E05243" stroke="rgb(0,0,0)" d="M 50.001 85.952 L 50.001 14.048 L 60.896 19.496 L 60.896 80.505 L 50.001 85.952 Z" stroke-opacity="0" stroke-miterlimit="10"/></g><g><path fill="#8C3123" stroke="rgb(0,0,0)" d="M 50.001 85.952 L 50.001 14.048 L 39.104 19.496 L 39.104 80.505 L 50.001 85.952 Z" stroke-opacity="0" stroke-miterlimit="10"/></g></g></g></g></g></g><g transform="matrix(1,0,0,1,296,122)"><g transform="translate(197,39) matrix(1,0,0,1,0,0) translate(-197,-39)"><g/></g><g transform="translate(197,39) matrix(1,0,0,1,0,0) translate(-197,-39)"><g/></g><g transform="translate(197,39) matrix(1,0,0,1,0,0) translate(-197,-39)"><g/></g><g transform="translate(197,39) matrix(1,0,0,1,0,0) translate(-197,-39)"><g/></g><g transform="translate(197,39) matrix(1,0,0,1,0,0) translate(-197,-39)"><g/><text fill="rgb(0, 0, 0)" stroke="none" font-family="&quot;Arial&quot;" font-size="24px" font-style="normal" font-weight="normal" text-decoration="" line-height="27px" x="21" y="21">AC</text><text fill="rgb(0, 0, 0)" stroke="none" font-family="&quot;Arial&quot;" font-size="24px" font-style="normal" font-weight="normal" text-decoration="" line-height="27px" x="61" y="21">interm</text><text fill="rgb(0, 0, 0)" stroke="none" font-family="&quot;Arial&quot;" font-size="24px" font-style="normal" font-weight="normal" text-decoration="" line-height="27px" x="127" y="21">é</text><text fill="rgb(0, 0, 0)" stroke="none" font-family="&quot;Arial&quot;" font-size="24px" font-style="normal" font-weight="normal" text-decoration="" line-height="27px" x="140" y="21">diaire</text></g><g transform="translate(197,39) matrix(1,0,0,1,0,0) translate(-197,-39)"><g/></g></g><g transform="translate(0,0) matrix(1,0,0,1,39.85599999999994,200)"><g><g transform="translate(0,0) scale(1,1) translate(-20.072,-14)"><g><g><g><path fill="#8C3123" stroke="rgb(0,0,0)" d="M 58.875 43.851 L 72.72 42.787 L 72.72 25.359 L 58.875 28.957 L 58.875 43.851 Z" stroke-opacity="0" stroke-miterlimit="10"/></g><g><path fill="#E05243" stroke="rgb(0,0,0)" d="M 64.287 41.619 L 49.858 39.527 L 49.858 14 L 64.287 21.215 L 64.287 41.619 Z" stroke-opacity="0" stroke-miterlimit="10"/></g><g><path fill="#E05243" stroke="rgb(0,0,0)" d="M 79.928 43.866 L 72.72 42.821 L 72.72 25.359 L 79.928 28.965 L 79.928 43.866 Z" stroke-opacity="0" stroke-miterlimit="10"/></g><g><path fill="#5E1F18" stroke="rgb(0,0,0)" d="M 58.875 43.851 L 72.563 42.799 L 79.928 43.867 L 66.704 44.656 L 58.875 43.851 Z" stroke-opacity="0" stroke-miterlimit="10"/></g><g><path fill="#8C3123" stroke="rgb(0,0,0)" d="M 58.875 56.148 L 72.72 57.211 L 72.72 74.64 L 58.875 71.043 L 58.875 56.148 Z" stroke-opacity="0" stroke-miterlimit="10"/></g><g><path fill="#E05243" stroke="rgb(0,0,0)" d="M 64.287 58.38 L 49.858 60.472 L 49.858 86 L 64.287 78.785 L 64.287 58.38 Z" stroke-opacity="0" stroke-miterlimit="10"/></g><g><path fill="#E05243" stroke="rgb(0,0,0)" d="M 79.786 56.133 L 72.578 57.178 L 72.578 74.64 L 79.786 71.035 L 79.786 56.133 Z" stroke-opacity="0" stroke-miterlimit="10"/></g><g><path fill="#F2B0A9" stroke="rgb(0,0,0)" d="M 58.875 56.148 L 72.563 57.2 L 79.928 56.133 L 66.704 55.342 L 58.875 56.148 Z" stroke-opacity="0" stroke-miterlimit="10"/></g><g><path fill="#E05243" stroke="rgb(0,0,0)" d="M 40.983 43.851 L 27.139 42.787 L 27.139 25.359 L 40.983 28.957 L 40.983 43.851 Z" stroke-opacity="0" stroke-miterlimit="10"/></g><g><path fill="#8C3123" stroke="rgb(0,0,0)" d="M 35.571 41.619 L 50 39.527 L 50 14 L 35.571 21.215 L 35.571 41.619 Z" stroke-opacity="0" stroke-miterlimit="10"/></g><g><path fill="#8C3123" stroke="rgb(0,0,0)" d="M 20.072 43.866 L 27.28 42.821 L 27.28 25.359 L 20.072 28.965 L 20.072 43.866 Z" stroke-opacity="0" stroke-miterlimit="10"/></g><g><path fill="#5E1F18" stroke="rgb(0,0,0)" d="M 41.125 43.851 L 27.436 42.799 L 20.072 43.867 L 33.296 44.656 L 41.125 43.851 Z" stroke-opacity="0" stroke-miterlimit="10"/></g><g><path fill="#E05243" stroke="rgb(0,0,0)" d="M 40.983 56.148 L 27.139 57.211 L 27.139 74.64 L 40.983 71.043 L 40.983 56.148 Z" stroke-opacity="0" stroke-miterlimit="10"/></g><g><path fill="#8C3123" stroke="rgb(0,0,0)" d="M 35.571 58.38 L 50 60.472 L 50 86 L 35.571 78.785 L 35.571 58.38 Z" stroke-opacity="0" stroke-miterlimit="10"/></g><g><path fill="#8C3123" stroke="rgb(0,0,0)" d="M 20.072 56.133 L 27.28 57.178 L 27.28 74.64 L 20.072 71.035 L 20.072 56.133 Z" stroke-opacity="0" stroke-miterlimit="10"/></g><g><path fill="#F2B0A9" stroke="rgb(0,0,0)" d="M 41.125 56.148 L 27.436 57.2 L 20.072 56.133 L 33.296 55.342 L 41.125 56.148 Z" stroke-opacity="0" stroke-miterlimit="10"/></g><g><path fill="#F2B0A9" stroke="rgb(0,0,0)" d="M 64.429 58.38 L 50 56.971 L 35.571 58.38 L 50 60.495 L 64.429 58.38 Z" stroke-opacity="0" stroke-miterlimit="10"/></g><g><path fill="#5E1F18" stroke="rgb(0,0,0)" d="M 64.429 41.619 L 50 43.012 L 35.571 41.619 L 50 39.527 L 64.429 41.619 Z" stroke-opacity="0" stroke-miterlimit="10"/></g></g></g></g></g></g><g transform="matrix(1,0,0,1,106,209)"><g transform="translate(809,9) matrix(1,0,0,1,0,0) translate(-809,-9)"><g/></g><g transform="translate(809,9) matrix(1,0,0,1,0,0) translate(-809,-9)"><g/></g><g transform="translate(809,9) matrix(1,0,0,1,0,0) translate(-809,-9)"><g/></g><g transform="translate(809,9) matrix(1,0,0,1,0,0) translate(-809,-9)"><g/></g><g transform="translate(809,9) matrix(1,0,0,1,0,0) translate(-809,-9)"><g/><text fill="rgb(0, 0, 0)" stroke="none" font-family="&quot;Arial&quot;" font-size="24px" font-style="normal" font-weight="normal" text-decoration="" line-height="27px" x="0" y="21">Autorit</text><text fill="rgb(0, 0, 0)" stroke="none" font-family="&quot;Arial&quot;" font-size="24px" font-style="normal" font-weight="normal" text-decoration="" line-height="27px" x="69" y="21">é</text><text fill="rgb(0, 0, 0)" stroke="none" font-family="&quot;Arial&quot;" font-size="24px" font-style="normal" font-weight="normal" text-decoration="" line-height="27px" x="89" y="21">d</text><text fill="rgb(0, 0, 0)" stroke="none" font-family="&quot;Arial&quot;" font-size="24px" font-style="normal" font-weight="normal" text-decoration="" line-height="27px" x="102" y="21">’</text><text fill="rgb(0, 0, 0)" stroke="none" font-family="&quot;Arial&quot;" font-size="24px" font-style="normal" font-weight="normal" text-decoration="" line-height="27px" x="107" y="21">enregistrement</text></g><g transform="translate(809,9) matrix(1,0,0,1,0,0) translate(-809,-9)"><g/></g><g transform="translate(809,9) matrix(1,0,0,1,0,0) translate(-809,-9)"><g/></g><g transform="translate(809,9) matrix(1,0,0,1,0,0) translate(-809,-9)"><g/></g></g><g transform="translate(0,0) matrix(1,0,0,1,450,10)"><g><g transform="translate(0,0) scale(1,1) translate(-20.546,-14)"><g><g><g><path fill="#8C3123" stroke="rgb(0,0,0)" d="M 50.329 67.354 L 75.312 73.399 L 75.312 26.492 L 50.329 32.541 L 50.329 67.354 Z" stroke-opacity="0" stroke-miterlimit="10"/></g><g><path fill="#E05243" stroke="rgb(0,0,0)" d="M 75.313 26.492 L 80.114 28.892 L 80.114 71.013 L 75.313 73.412 L 75.313 26.492 Z" stroke-opacity="0" stroke-miterlimit="10"/></g><g><path fill="#E05243" stroke="rgb(0,0,0)" d="M 61.226 34.856 L 50.329 32.16 L 50.329 14 L 61.226 19.448 L 61.226 34.856 Z" stroke-opacity="0" stroke-miterlimit="10"/></g><g><path fill="#E05243" stroke="rgb(0,0,0)" d="M 50.329 86 L 61.225 80.554 L 61.225 65.146 L 50.329 67.841 L 50.329 86 Z" stroke-opacity="0" stroke-miterlimit="10"/></g><g><path fill="#E05243" stroke="rgb(0,0,0)" d="M 61.226 57.714 L 50.329 59.101 L 50.329 40.94 L 61.226 42.307 L 61.226 57.714 Z" stroke-opacity="0" stroke-miterlimit="10"/></g><g><path fill="#E05243" stroke="rgb(0,0,0)" d="M 50.329 67.354 L 25.345 73.399 L 25.345 26.492 L 50.329 32.541 L 50.329 67.354 Z" stroke-opacity="0" stroke-miterlimit="10"/></g><g><path fill="#8C3123" stroke="rgb(0,0,0)" d="M 25.345 26.492 L 20.546 28.892 L 20.546 71.013 L 25.345 73.412 L 25.345 26.492 Z" stroke-opacity="0" stroke-miterlimit="10"/></g><g><path fill="#8C3123" stroke="rgb(0,0,0)" d="M 39.435 34.856 L 50.329 32.16 L 50.329 14 L 39.435 19.448 L 39.435 34.856 Z" stroke-opacity="0" stroke-miterlimit="10"/></g><g><path fill="#8C3123" stroke="rgb(0,0,0)" d="M 50.329 86 L 39.434 80.554 L 39.434 65.146 L 50.329 67.841 L 50.329 86 Z" stroke-opacity="0" stroke-miterlimit="10"/></g><g><path fill="#8C3123" stroke="rgb(0,0,0)" d="M 39.435 57.714 L 50.329 59.101 L 50.329 40.94 L 39.435 42.307 L 39.435 57.714 Z" stroke-opacity="0" stroke-miterlimit="10"/></g><g><path fill="#5E1F18" stroke="rgb(0,0,0)" d="M 61.226 34.856 L 50.329 36.842 L 39.435 34.856 L 50.329 32.16 L 61.226 34.856 Z" stroke-opacity="0" stroke-miterlimit="10"/></g><g><path fill="#F2B0A9" stroke="rgb(0,0,0)" d="M 61.226 65.145 L 50.329 63.146 L 39.435 65.145 L 50.329 67.858 L 61.226 65.145 Z" stroke-opacity="0" stroke-miterlimit="10"/></g></g></g></g></g></g><g transform="matrix(1,0,0,1,516,26)"><g transform="translate(40,78) matrix(1,0,0,1,0,0) translate(-40,-78)"><g/></g><g transform="translate(40,78) matrix(1,0,0,1,0,0) translate(-40,-78)"><g/></g><g transform="translate(40,78) matrix(1,0,0,1,0,0) translate(-40,-78)"><g/></g><g transform="translate(40,78) matrix(1,0,0,1,0,0) translate(-40,-78)"><g/><text fill="rgb(0, 0, 0)" stroke="none" font-family="&quot;Arial&quot;" font-size="24px" font-style="normal" font-weight="normal" text-decoration="" line-height="27px" x="0" y="21">AC</text></g><g transform="translate(40,78) matrix(1,0,0,1,0,0) translate(-40,-78)"><g/><text fill="rgb(0, 0, 0)" stroke="none" font-family="&quot;Arial&quot;" font-size="24px" font-style="normal" font-weight="normal" text-decoration="" line-height="27px" x="40" y="21">racine</text></g><g transform="translate(40,78) matrix(1,0,0,1,0,0) translate(-40,-78)"><g/></g><g transform="translate(40,78) matrix(1,0,0,1,0,0) translate(-40,-78)"><g/></g><g transform="translate(40,78) matrix(1,0,0,1,0,0) translate(-40,-78)"><g/></g></g><g transform="translate(0,0) matrix(1,0,0,1,429.85599999999994,200)"><g><g transform="translate(0,0) scale(1,1) translate(-20.072,-14)"><g><g><g><path fill="#8C3123" stroke="rgb(0,0,0)" d="M 58.875 43.851 L 72.72 42.787 L 72.72 25.359 L 58.875 28.957 L 58.875 43.851 Z" stroke-opacity="0" stroke-miterlimit="10"/></g><g><path fill="#E05243" stroke="rgb(0,0,0)" d="M 64.287 41.619 L 49.858 39.527 L 49.858 14 L 64.287 21.215 L 64.287 41.619 Z" stroke-opacity="0" stroke-miterlimit="10"/></g><g><path fill="#E05243" stroke="rgb(0,0,0)" d="M 79.928 43.866 L 72.72 42.821 L 72.72 25.359 L 79.928 28.965 L 79.928 43.866 Z" stroke-opacity="0" stroke-miterlimit="10"/></g><g><path fill="#5E1F18" stroke="rgb(0,0,0)" d="M 58.875 43.851 L 72.563 42.799 L 79.928 43.867 L 66.704 44.656 L 58.875 43.851 Z" stroke-opacity="0" stroke-miterlimit="10"/></g><g><path fill="#8C3123" stroke="rgb(0,0,0)" d="M 58.875 56.148 L 72.72 57.211 L 72.72 74.64 L 58.875 71.043 L 58.875 56.148 Z" stroke-opacity="0" stroke-miterlimit="10"/></g><g><path fill="#E05243" stroke="rgb(0,0,0)" d="M 64.287 58.38 L 49.858 60.472 L 49.858 86 L 64.287 78.785 L 64.287 58.38 Z" stroke-opacity="0" stroke-miterlimit="10"/></g><g><path fill="#E05243" stroke="rgb(0,0,0)" d="M 79.786 56.133 L 72.578 57.178 L 72.578 74.64 L 79.786 71.035 L 79.786 56.133 Z" stroke-opacity="0" stroke-miterlimit="10"/></g><g><path fill="#F2B0A9" stroke="rgb(0,0,0)" d="M 58.875 56.148 L 72.563 57.2 L 79.928 56.133 L 66.704 55.342 L 58.875 56.148 Z" stroke-opacity="0" stroke-miterlimit="10"/></g><g><path fill="#E05243" stroke="rgb(0,0,0)" d="M 40.983 43.851 L 27.139 42.787 L 27.139 25.359 L 40.983 28.957 L 40.983 43.851 Z" stroke-opacity="0" stroke-miterlimit="10"/></g><g><path fill="#8C3123" stroke="rgb(0,0,0)" d="M 35.571 41.619 L 50 39.527 L 50 14 L 35.571 21.215 L 35.571 41.619 Z" stroke-opacity="0" stroke-miterlimit="10"/></g><g><path fill="#8C3123" stroke="rgb(0,0,0)" d="M 20.072 43.866 L 27.28 42.821 L 27.28 25.359 L 20.072 28.965 L 20.072 43.866 Z" stroke-opacity="0" stroke-miterlimit="10"/></g><g><path fill="#5E1F18" stroke="rgb(0,0,0)" d="M 41.125 43.851 L 27.436 42.799 L 20.072 43.867 L 33.296 44.656 L 41.125 43.851 Z" stroke-opacity="0" stroke-miterlimit="10"/></g><g><path fill="#E05243" stroke="rgb(0,0,0)" d="M 40.983 56.148 L 27.139 57.211 L 27.139 74.64 L 40.983 71.043 L 40.983 56.148 Z" stroke-opacity="0" stroke-miterlimit="10"/></g><g><path fill="#8C3123" stroke="rgb(0,0,0)" d="M 35.571 58.38 L 50 60.472 L 50 86 L 35.571 78.785 L 35.571 58.38 Z" stroke-opacity="0" stroke-miterlimit="10"/></g><g><path fill="#8C3123" stroke="rgb(0,0,0)" d="M 20.072 56.133 L 27.28 57.178 L 27.28 74.64 L 20.072 71.035 L 20.072 56.133 Z" stroke-opacity="0" stroke-miterlimit="10"/></g><g><path fill="#F2B0A9" stroke="rgb(0,0,0)" d="M 41.125 56.148 L 27.436 57.2 L 20.072 56.133 L 33.296 55.342 L 41.125 56.148 Z" stroke-opacity="0" stroke-miterlimit="10"/></g><g><path fill="#F2B0A9" stroke="rgb(0,0,0)" d="M 64.429 58.38 L 50 56.971 L 35.571 58.38 L 50 60.495 L 64.429 58.38 Z" stroke-opacity="0" stroke-miterlimit="10"/></g><g><path fill="#5E1F18" stroke="rgb(0,0,0)" d="M 64.429 41.619 L 50 43.012 L 35.571 41.619 L 50 39.527 L 64.429 41.619 Z" stroke-opacity="0" stroke-miterlimit="10"/></g></g></g></g></g></g><g transform="matrix(1,0,0,1,496,223)"><g transform="translate(3,-1) matrix(1,0,0,1,0,0) translate(-3,1)"><g/></g><g transform="translate(3,-1) matrix(1,0,0,1,0,0) translate(-3,1)"><g/></g><g transform="translate(3,-1) matrix(1,0,0,1,0,0) translate(-3,1)"><g/><text fill="rgb(0, 0, 0)" stroke="none" font-family="&quot;Arial&quot;" font-size="24px" font-style="normal" font-weight="normal" text-decoration="" line-height="27px" x="3" y="21">Autorit</text><text fill="rgb(0, 0, 0)" stroke="none" font-family="&quot;Arial&quot;" font-size="24px" font-style="normal" font-weight="normal" text-decoration="" line-height="27px" x="72" y="21">é</text><text fill="rgb(0, 0, 0)" stroke="none" font-family="&quot;Arial&quot;" font-size="24px" font-style="normal" font-weight="normal" text-decoration="" line-height="27px" x="92" y="21">d</text><text fill="rgb(0, 0, 0)" stroke="none" font-family="&quot;Arial&quot;" font-size="24px" font-style="normal" font-weight="normal" text-decoration="" line-height="27px" x="105" y="21">’</text><text fill="rgb(0, 0, 0)" stroke="none" font-family="&quot;Arial&quot;" font-size="24px" font-style="normal" font-weight="normal" text-decoration="" line-height="27px" x="110" y="21">enregistrement</text></g></g><g transform="translate(0,0) matrix(1,0,0,1,799.856,200)"><g><g transform="translate(0,0) scale(1,1) translate(-20.072,-14)"><g><g><g><path fill="#8C3123" stroke="rgb(0,0,0)" d="M 58.875 43.851 L 72.72 42.787 L 72.72 25.359 L 58.875 28.957 L 58.875 43.851 Z" stroke-opacity="0" stroke-miterlimit="10"/></g><g><path fill="#E05243" stroke="rgb(0,0,0)" d="M 64.287 41.619 L 49.858 39.527 L 49.858 14 L 64.287 21.215 L 64.287 41.619 Z" stroke-opacity="0" stroke-miterlimit="10"/></g><g><path fill="#E05243" stroke="rgb(0,0,0)" d="M 79.928 43.866 L 72.72 42.821 L 72.72 25.359 L 79.928 28.965 L 79.928 43.866 Z" stroke-opacity="0" stroke-miterlimit="10"/></g><g><path fill="#5E1F18" stroke="rgb(0,0,0)" d="M 58.875 43.851 L 72.563 42.799 L 79.928 43.867 L 66.704 44.656 L 58.875 43.851 Z" stroke-opacity="0" stroke-miterlimit="10"/></g><g><path fill="#8C3123" stroke="rgb(0,0,0)" d="M 58.875 56.148 L 72.72 57.211 L 72.72 74.64 L 58.875 71.043 L 58.875 56.148 Z" stroke-opacity="0" stroke-miterlimit="10"/></g><g><path fill="#E05243" stroke="rgb(0,0,0)" d="M 64.287 58.38 L 49.858 60.472 L 49.858 86 L 64.287 78.785 L 64.287 58.38 Z" stroke-opacity="0" stroke-miterlimit="10"/></g><g><path fill="#E05243" stroke="rgb(0,0,0)" d="M 79.786 56.133 L 72.578 57.178 L 72.578 74.64 L 79.786 71.035 L 79.786 56.133 Z" stroke-opacity="0" stroke-miterlimit="10"/></g><g><path fill="#F2B0A9" stroke="rgb(0,0,0)" d="M 58.875 56.148 L 72.563 57.2 L 79.928 56.133 L 66.704 55.342 L 58.875 56.148 Z" stroke-opacity="0" stroke-miterlimit="10"/></g><g><path fill="#E05243" stroke="rgb(0,0,0)" d="M 40.983 43.851 L 27.139 42.787 L 27.139 25.359 L 40.983 28.957 L 40.983 43.851 Z" stroke-opacity="0" stroke-miterlimit="10"/></g><g><path fill="#8C3123" stroke="rgb(0,0,0)" d="M 35.571 41.619 L 50 39.527 L 50 14 L 35.571 21.215 L 35.571 41.619 Z" stroke-opacity="0" stroke-miterlimit="10"/></g><g><path fill="#8C3123" stroke="rgb(0,0,0)" d="M 20.072 43.866 L 27.28 42.821 L 27.28 25.359 L 20.072 28.965 L 20.072 43.866 Z" stroke-opacity="0" stroke-miterlimit="10"/></g><g><path fill="#5E1F18" stroke="rgb(0,0,0)" d="M 41.125 43.851 L 27.436 42.799 L 20.072 43.867 L 33.296 44.656 L 41.125 43.851 Z" stroke-opacity="0" stroke-miterlimit="10"/></g><g><path fill="#E05243" stroke="rgb(0,0,0)" d="M 40.983 56.148 L 27.139 57.211 L 27.139 74.64 L 40.983 71.043 L 40.983 56.148 Z" stroke-opacity="0" stroke-miterlimit="10"/></g><g><path fill="#8C3123" stroke="rgb(0,0,0)" d="M 35.571 58.38 L 50 60.472 L 50 86 L 35.571 78.785 L 35.571 58.38 Z" stroke-opacity="0" stroke-miterlimit="10"/></g><g><path fill="#8C3123" stroke="rgb(0,0,0)" d="M 20.072 56.133 L 27.28 57.178 L 27.28 74.64 L 20.072 71.035 L 20.072 56.133 Z" stroke-opacity="0" stroke-miterlimit="10"/></g><g><path fill="#F2B0A9" stroke="rgb(0,0,0)" d="M 41.125 56.148 L 27.436 57.2 L 20.072 56.133 L 33.296 55.342 L 41.125 56.148 Z" stroke-opacity="0" stroke-miterlimit="10"/></g><g><path fill="#F2B0A9" stroke="rgb(0,0,0)" d="M 64.429 58.38 L 50 56.971 L 35.571 58.38 L 50 60.495 L 64.429 58.38 Z" stroke-opacity="0" stroke-miterlimit="10"/></g><g><path fill="#5E1F18" stroke="rgb(0,0,0)" d="M 64.429 41.619 L 50 43.012 L 35.571 41.619 L 50 39.527 L 64.429 41.619 Z" stroke-opacity="0" stroke-miterlimit="10"/></g></g></g></g></g></g><g transform="matrix(1,0,0,1,866,223)"><g transform="translate(3,-1) matrix(1,0,0,1,0,0) translate(-3,1)"><g/></g><g transform="translate(3,-1) matrix(1,0,0,1,0,0) translate(-3,1)"><g/></g><g transform="translate(3,-1) matrix(1,0,0,1,0,0) translate(-3,1)"><g/><text fill="rgb(0, 0, 0)" stroke="none" font-family="&quot;Arial&quot;" font-size="24px" font-style="normal" font-weight="normal" text-decoration="" line-height="27px" x="3" y="21">Autorit</text><text fill="rgb(0, 0, 0)" stroke="none" font-family="&quot;Arial&quot;" font-size="24px" font-style="normal" font-weight="normal" text-decoration="" line-height="27px" x="72" y="21">é</text><text fill="rgb(0, 0, 0)" stroke="none" font-family="&quot;Arial&quot;" font-size="24px" font-style="normal" font-weight="normal" text-decoration="" line-height="27px" x="92" y="21">d</text><text fill="rgb(0, 0, 0)" stroke="none" font-family="&quot;Arial&quot;" font-size="24px" font-style="normal" font-weight="normal" text-decoration="" line-height="27px" x="105" y="21">’</text><text fill="rgb(0, 0, 0)" stroke="none" font-family="&quot;Arial&quot;" font-size="24px" font-style="normal" font-weight="normal" text-decoration="" line-height="27px" x="110" y="21">enregistrement</text></g></g></g></svg>