<?xml version="1.0" encoding="UTF-8" standalone="no"?>
<!-- Created with Inkscape (http://www.inkscape.org/) -->

<svg
   xmlns:dc="http://purl.org/dc/elements/1.1/"
   xmlns:cc="http://creativecommons.org/ns#"
   xmlns:rdf="http://www.w3.org/1999/02/22-rdf-syntax-ns#"
   xmlns:svg="http://www.w3.org/2000/svg"
   xmlns="http://www.w3.org/2000/svg"
   xmlns:sodipodi="http://sodipodi.sourceforge.net/DTD/sodipodi-0.dtd"
   xmlns:inkscape="http://www.inkscape.org/namespaces/inkscape"
   width="339.40027"
   height="320.1012"
   id="svg3142"
   version="1.1"
   inkscape:version="0.48.4 r9939"
   sodipodi:docname="handshake.svg">
  <defs
     id="defs3144" />
  <sodipodi:namedview
     id="base"
     pagecolor="#ffffff"
     bordercolor="#666666"
     borderopacity="1.0"
     inkscape:pageopacity="0.0"
     inkscape:pageshadow="2"
     inkscape:zoom="0.35"
     inkscape:cx="363.48575"
     inkscape:cy="-202.7686"
     inkscape:document-units="px"
     inkscape:current-layer="layer1"
     showgrid="false"
     inkscape:window-width="1918"
     inkscape:window-height="1059"
     inkscape:window-x="0"
     inkscape:window-y="19"
     inkscape:window-maximized="0"
     fit-margin-top="0"
     fit-margin-left="0"
     fit-margin-right="0"
     fit-margin-bottom="0" />
  <metadata
     id="metadata3147">
    <rdf:RDF>
      <cc:Work
         rdf:about="">
        <dc:format>image/svg+xml</dc:format>
        <dc:type
           rdf:resource="http://purl.org/dc/dcmitype/StillImage" />
        <dc:title />
      </cc:Work>
    </rdf:RDF>
  </metadata>
  <g
     inkscape:label="Layer 1"
     inkscape:groupmode="layer"
     id="layer1"
     transform="translate(-11.514246,-9.4923915)">
    <path
       inkscape:connector-curvature="0"
       d="M 345.49574,96.793581 288.79575,19.593582 c -5.25,-6.8 -12.95,-10.8000019 -21.7,-10.0000019 -7.7,0.4000001 -15.4,4.0000019 -21.7,10.0000019 -5.25,4.8 -8.75,10.8 -10.85,17.2 -31.5,-3.6 -57.05,-0.4 -79.8,9.6 l -10.85,4.8 c -1.4,0.8 -2.8,1.6 -4.2,2.4 -3.15,-2 -6.3,-4 -9.45,-6 -0.7,-10 -4.9,-20.4 -12.95,-28 -6.3,-6 -14,-9.6000018 -21.699997,-10.0000019 -8.75,-0.4 -16.45,3.2000019 -21.7,10.0000019 L 17.195752,96.793581 c -9.7999996,13.599999 -6.65,35.199999 7.35,48.799999 5.25,4.8 11.2,8 17.15,9.2 4.2,6 8.05,13.2 12.6,20.8 19.950001,34 46.899998,80.8 117.599998,137.6 l 9.1,7.2 c 1.05,0.8 2.1,1.2 2.8,1.6 l 2.45,2 c 5.25,4 10.85,5.6 16.8,5.6 10.15,0 19.95,-5.6 25.9,-16 1.75,-3.2 2.8,-6.4 3.5,-9.6 3.5,1.2 7,2 10.5,2 10.15,0 19.95,-5.6 25.9,-16 2.8,-4.8 4.2,-10.4 4.55,-16 1.4,0 3.15,0 4.55,-0.4 8.05,-2 15.05,-7.2 19.25,-15.2 3.85,-6.8 5.25,-14.8 4.55,-22.4 6.65,-2.4 12.95,-7.2 17.15,-14.4 4.54999,-8 5.94999,-17.2 4.19999,-26.4 -1.75,-9.2 -6.29999,-17.2 -13.29999,-22 l -2.45,-2 12.6,-16.4 c 5.94999,-1.2 11.89999,-4.4 17.14999,-9.2 6.3,-6 10.85,-14 12.25,-22.4 3.15,-10 1.4,-19.2 -3.85,-26.399999 z M 279.34575,244.39358 c -1.05,2 -2.8,3.6 -4.9,4 -2.1,0.4 -4.2,0 -5.95,-1.2 l -52.85,-32.4 c -3.15,-2.4 -7.35,-1.2 -9.45,2.4 -2.1,3.6 -1.05,8.4 2.1,10.8 l 38.85,34.8 c 0.35,0.4 0.7,0.8 1.05,1.2 3.5,2.8 4.55,8.4 2.45,12.8 -2.45,4 -7.35,5.2 -11.2,2.8 l -38.5,-22 c -3.15,-2.4 -7.35,-1.2 -9.45,2.4 -2.1,3.6 -1.05,8.4 2.1,10.8 l 13.65,16 c 0.35,0.4 0.7,0.8 1.05,1.2 3.5,2.8 4.55,8.4 2.45,12.8 -2.45,4 -7.35,5.2 -11.2,2.8 l -14,-10.4 c -66.85,-53.6 -92.749997,-98 -111.649997,-130.4 -2.8,-4.8 -5.25,-9.2 -8.05,-13.2 0.7,-0.8 1.75,-1.6 2.45,-2.4 L 121.84575,73.993581 c 0.7,0.4 1.75,1.2 2.8,1.6 -3.15,9.6 -3.15,20 0.7,29.199999 7,18.4 24.85,27.6 41.65,21.6 l 18.9,-6.8 c 4.2,-1.6 8.4,-0.4 11.55,3.2 0.7,0.8 1.4,1.2 2.1,2 l 71.05,50.8 28,20.8 c 1.75,1.2 3.15,3.2 3.5,5.6 0.35,2.4 0,4.8 -1.05,6.8 -1.05,2 -2.8,3.6 -4.9,4 -2.1,0.4 -4.2,0 -5.95,-1.2 l -59.5,-37.6 c -3.15,-2.4 -7.35,-1.2 -9.45,2.4 -2.1,3.6 -1.05,8.4 2.1,10.8 l 53.2,45.2 c 0.35,0.4 0.35,0.4 0.7,0.8 3.5,1.2 4.55,6.8 2.1,11.2 z m -1.05,-95.6 c -0.35,0 -0.35,-0.4 -0.7,-0.4 l -64.75,-46.4 c -9.1,-9.599999 -21.7,-12.799999 -33.6,-8.799999 l -18.9,6.8 c -5.6,1.999999 -11.55,-1.2 -14,-7.2 -1.4,-3.2 -1.4,-6.8 0,-10 1.05,-3.2 3.5,-6 6.3,-7.2 l 10.85,-4.8 c 19.95,-8.8 43.05,-11.2 72.1,-7.6 0.7,2 1.75,3.6 3.15,5.2 l 56.7,77.199999 c 0.35,0.8 1.05,1.2 1.75,2 l -7.35,9.6 -6.3,-4.4 -5.25,-4 z"
       id="path5" />
  </g>
</svg>
