<svg version="1.1" xmlns="http://www.w3.org/2000/svg" xmlns:xlink="http://www.w3.org/1999/xlink" width="1172.9821875" height="534.5129829049386"><style xmlns="http://www.w3.org/1999/xhtml"></style><defs/><g transform="translate(0,0)"><g><rect fill="#FFFFFF" stroke="none" x="0" y="0" width="1172.9821875" height="534.5129829049386"/></g><g transform="translate(0,0) matrix(1,0,0,1,625,375.51298290493855)"><g><g transform="translate(0,0) scale(3.8,1.1)"><g><path fill="#f4cccc" stroke="none" d="M 0 0 L 100 0 Q 100 0 100 0 L 100 100 Q 100 100 100 100 L 0 100 Q 0 100 0 100 L 0 0 Q 0 0 0 0 Z"/><g transform="scale(0.2631578947368421,0.9090909090909091)"><path fill="none" stroke="none" d="M 0 0 L 380 0 Q 380 0 380 0 L 380 110.00000000000001 Q 380 110.00000000000001 380 110.00000000000001 L 0 110.00000000000001 Q 0 110.00000000000001 0 110.00000000000001 L 0 0 Q 0 0 0 0 Z"/><path fill="none" stroke="#333333" d="M 0 0 M 0 0 L 380 0 Q 380 0 380 0 L 380 110.00000000000001 Q 380 110.00000000000001 380 110.00000000000001 L 0 110.00000000000001 Q 0 110.00000000000001 0 110.00000000000001 L 0 0 Q 0 0 0 0 Z" stroke-miterlimit="10" stroke-width="2"/></g></g></g></g></g><g transform="matrix(1,0,0,1,641,488)"><g transform="translate(577,39) matrix(1,0,0,1,0,0) translate(-577,-39)"><g/></g><g transform="translate(577,39) matrix(1,0,0,1,0,0) translate(-577,-39)"><g/></g><g transform="translate(577,39) matrix(1,0,0,1,0,0) translate(-577,-39)"><g/></g><g transform="translate(577,39) matrix(1,0,0,1,0,0) translate(-577,-39)"><g/></g><g transform="translate(577,39) matrix(1,0,0,1,0,0) translate(-577,-39)"><g/><text fill="rgb(0, 0, 0)" stroke="none" font-family="&quot;Arial&quot;" font-size="24px" font-style="normal" font-weight="normal" text-decoration="" line-height="27px" x="114" y="21">DataCenter</text></g><g transform="translate(577,39) matrix(1,0,0,1,0,0) translate(-577,-39)"><g/></g></g><g transform="translate(0,0) matrix(1,0,0,1,390,29.583302491977065)"><g><g transform="translate(0,0) scale(4.7,3.08)"><g><path fill="#cfe2f3" stroke="none" d="M 0 0 L 100 0 Q 100 0 100 0 L 100 100 Q 100 100 100 100 L 0 100 Q 0 100 0 100 L 0 0 Q 0 0 0 0 Z"/><g transform="scale(0.2127659574468085,0.3246753246753247)"><path fill="none" stroke="none" d="M 0 0 L 470 0 Q 470 0 470 0 L 470 308 Q 470 308 470 308 L 0 308 Q 0 308 0 308 L 0 0 Q 0 0 0 0 Z"/><path fill="none" stroke="#333333" d="M 0 0 M 0 0 L 470 0 Q 470 0 470 0 L 470 308 Q 470 308 470 308 L 0 308 Q 0 308 0 308 L 0 0 Q 0 0 0 0 Z" stroke-miterlimit="10" stroke-width="2"/></g></g></g></g></g><g transform="matrix(1,0,0,1,407,-3)"><g transform="translate(837,39) matrix(1,0,0,1,0,0) translate(-837,-39)"><g/></g><g transform="translate(837,39) matrix(1,0,0,1,0,0) translate(-837,-39)"><g/></g><g transform="translate(837,39) matrix(1,0,0,1,0,0) translate(-837,-39)"><g/></g><g transform="translate(837,39) matrix(1,0,0,1,0,0) translate(-837,-39)"><g/></g><g transform="translate(837,39) matrix(1,0,0,1,0,0) translate(-837,-39)"><g/><text fill="rgb(0, 0, 0)" stroke="none" font-family="&quot;Arial&quot;" font-size="24px" font-style="normal" font-weight="normal" text-decoration="" line-height="27px" x="200" y="21">FAI</text></g><g transform="translate(837,39) matrix(1,0,0,1,0,0) translate(-837,-39)"><g/></g></g><g transform="translate(0,0) matrix(1,0,0,1,11.499999999999943,101.24737298107789)"><g><g transform="translate(0,0) scale(3.7000000000000006,3.4)"><g><path fill="#fff2cc" stroke="none" d="M 0 0 L 100 0 Q 100 0 100 0 L 100 100 Q 100 100 100 100 L 0 100 Q 0 100 0 100 L 0 0 Q 0 0 0 0 Z"/><g transform="scale(0.27027027027027023,0.29411764705882354)"><path fill="none" stroke="none" d="M 0 0 L 370.00000000000006 0 Q 370.00000000000006 0 370.00000000000006 0 L 370.00000000000006 340 Q 370.00000000000006 340 370.00000000000006 340 L 0 340 Q 0 340 0 340 L 0 0 Q 0 0 0 0 Z"/><path fill="none" stroke="#333333" d="M 0 0 M 0 0 L 370.00000000000006 0 Q 370.00000000000006 0 370.00000000000006 0 L 370.00000000000006 340 Q 370.00000000000006 340 370.00000000000006 340 L 0 340 Q 0 340 0 340 L 0 0 Q 0 0 0 0 Z" stroke-miterlimit="10" stroke-width="2"/></g></g></g></g></g><g transform="matrix(1,0,0,1,27,68)"><g transform="translate(470,39) matrix(1,0,0,1,0,0) translate(-470,-39)"><g/></g><g transform="translate(470,39) matrix(1,0,0,1,0,0) translate(-470,-39)"><g/></g><g transform="translate(470,39) matrix(1,0,0,1,0,0) translate(-470,-39)"><g/></g><g transform="translate(470,39) matrix(1,0,0,1,0,0) translate(-470,-39)"><g/></g><g transform="translate(470,39) matrix(1,0,0,1,0,0) translate(-470,-39)"><g/><text fill="rgb(0, 0, 0)" stroke="none" font-family="&quot;Arial&quot;" font-size="24px" font-style="normal" font-weight="normal" text-decoration="" line-height="27px" x="65" y="21">R</text><text fill="rgb(0, 0, 0)" stroke="none" font-family="&quot;Arial&quot;" font-size="24px" font-style="normal" font-weight="normal" text-decoration="" line-height="27px" x="82" y="21">é</text><text fill="rgb(0, 0, 0)" stroke="none" font-family="&quot;Arial&quot;" font-size="24px" font-style="normal" font-weight="normal" text-decoration="" line-height="27px" x="95" y="21">seau</text><text fill="rgb(0, 0, 0)" stroke="none" font-family="&quot;Arial&quot;" font-size="24px" font-style="normal" font-weight="normal" text-decoration="" line-height="27px" x="153" y="21">domestique</text></g><g transform="translate(470,39) matrix(1,0,0,1,0,0) translate(-470,-39)"><g/></g></g><g transform="translate(0.5,0.5) matrix(1,0,0,1,150,124.16987298107784)"><g><g transform="translate(0,0) scale(1,1.0017530678687703)"><g><g><path fill="#3966A0" stroke="rgb(0,0,0)" d="M 98.5 20.418 L 90.477 20.418 L 90.477 4 C 90.477 1.794 88.682 0 86.477 0 C 84.27 0 82.477 1.794 82.477 4 L 82.477 20.418 L 20.45 20.418 L 20.45 4 C 20.45 1.794 18.656 0 16.45 0 C 14.244 0 12.45 1.794 12.45 4 L 12.45 20.418 L 4.5 20.418 C 2.019 20.418 0 22.437 0 24.918 L 0 44.892 C 0 47.148 1.669 49.022 3.837 49.342 L 4.892 49.408 L 4.892 55.881 L 27.936 55.881 L 27.936 49.391 L 74.917 49.391 L 74.917 55.881 L 97.961 55.902 L 97.961 49.389 L 98.5 49.389 C 100.98 49.389 103 47.368 103 44.889 L 103 24.918 C 103 22.436 100.98 20.418 98.5 20.418 Z" stroke-opacity="0" stroke-miterlimit="10"/></g><g><path fill="#FFFFFF" stroke="rgb(0,0,0)" d="M 15.45 3.992 L 15.45 20.418 L 17.45 20.418 L 17.45 3.992 C 17.45 3.441 17.002 2.992 16.45 2.992 C 15.898 2.992 15.45 3.441 15.45 3.992 Z" opacity="0.7" stroke-opacity="0" stroke-miterlimit="10"/></g><g><path fill="#FFFFFF" stroke="rgb(0,0,0)" d="M 87.477 3.992 C 87.477 3.441 87.03 2.992 86.477 2.992 C 85.925 2.992 85.477 3.441 85.477 3.992 L 85.477 20.418 L 87.477 20.418 L 87.477 3.992 Z" opacity="0.7" stroke-opacity="0" stroke-miterlimit="10"/></g><g><path fill="#FFFFFF" stroke="rgb(0,0,0)" d="M 4.5 46.363 L 6.724 46.363 L 7.892 46.363 L 24.937 46.363 L 26.768 46.363 L 76.418 46.363 L 77.918 46.363 L 94.962 46.363 L 96.462 46.363 L 98.5 46.363 C 99.327 46.363 100 45.69 100 44.863 L 100 24.89 C 100 24.063 99.327 23.39 98.5 23.39 L 4.5 23.39 C 3.673 23.39 3 24.063 3 24.89 L 3 44.864 C 3 45.69 3.673 46.363 4.5 46.363 Z M 90.208 31.632 C 92.001 31.632 93.455 33.085 93.455 34.878 C 93.455 36.671 92.001 38.126 90.208 38.126 C 88.415 38.126 86.961 36.671 86.961 34.878 C 86.961 33.085 88.415 31.632 90.208 31.632 Z M 76.932 31.632 C 78.725 31.632 80.18 33.085 80.18 34.878 C 80.18 36.671 78.725 38.126 76.932 38.126 C 75.139 38.126 73.686 36.671 73.686 34.878 C 73.686 33.085 75.139 31.632 76.932 31.632 Z M 63.656 31.632 C 65.449 31.632 66.902 33.085 66.902 34.878 C 66.902 36.671 65.449 38.126 63.656 38.126 C 61.863 38.126 60.409 36.671 60.409 34.878 C 60.41 33.085 61.863 31.632 63.656 31.632 Z M 50.381 31.632 C 52.174 31.632 53.628 33.085 53.628 34.878 C 53.628 36.671 52.174 38.126 50.381 38.126 C 48.588 38.126 47.134 36.671 47.134 34.878 C 47.134 33.085 48.588 31.632 50.381 31.632 Z M 28.16 28.737 L 31.16 28.737 L 31.16 41.017 L 28.16 41.017 L 28.16 28.737 Z M 21.703 28.737 L 24.703 28.737 L 24.703 41.017 L 21.703 41.017 L 21.703 28.737 Z M 15.245 28.737 L 18.245 28.737 L 18.245 41.017 L 15.245 41.017 L 15.245 28.737 Z M 8.788 28.737 L 11.788 28.737 L 11.788 41.017 L 8.788 41.017 L 8.788 28.737 Z" opacity="0.93" stroke-opacity="0" stroke-miterlimit="10"/></g><g><path fill="#FFFFFF" stroke="rgb(0,0,0)" d="M 7.892 49.363 L 24.937 49.363 Q 24.937 49.363 24.937 49.363 L 24.937 52.857 Q 24.937 52.857 24.937 52.857 L 7.892 52.857 Q 7.892 52.857 7.892 52.857 L 7.892 49.363 Q 7.892 49.363 7.892 49.363 Z" opacity="0.7" stroke-opacity="0" stroke-miterlimit="10"/></g><g><path fill="#FFFFFF" stroke="rgb(0,0,0)" d="M 77.918 49.363 L 94.962 49.363 Q 94.962 49.363 94.962 49.363 L 94.962 52.857 Q 94.962 52.857 94.962 52.857 L 77.918 52.857 Q 77.918 52.857 77.918 52.857 L 77.918 49.363 Q 77.918 49.363 77.918 49.363 Z" opacity="0.7" stroke-opacity="0" stroke-miterlimit="10"/></g><g><path fill="#FFFFFF" stroke="rgb(0,0,0)" d="M 80.179 34.879 A 3.247 3.247 0 1 0 80.17899837650013 34.88224699945883 Z" opacity="0.5" stroke-opacity="0" stroke-miterlimit="10"/></g><g><path fill="#FFFFFF" stroke="rgb(0,0,0)" d="M 66.90299999999999 34.879 A 3.247 3.247 0 1 0 66.90299837650014 34.88224699945883 Z" opacity="0.5" stroke-opacity="0" stroke-miterlimit="10"/></g><g><path fill="#FFFFFF" stroke="rgb(0,0,0)" d="M 53.628 34.879 A 3.247 3.247 0 1 0 53.62799837650014 34.88224699945883 Z" opacity="0.5" stroke-opacity="0" stroke-miterlimit="10"/></g></g></g></g></g><g transform="matrix(1,0,0,1,156,182)"><g transform="translate(96,39) matrix(1,0,0,1,0,0) translate(-96,-39)"><g/></g><g transform="translate(96,39) matrix(1,0,0,1,0,0) translate(-96,-39)"><g/></g><g transform="translate(96,39) matrix(1,0,0,1,0,0) translate(-96,-39)"><g/></g><g transform="translate(96,39) matrix(1,0,0,1,0,0) translate(-96,-39)"><g/></g><g transform="translate(96,39) matrix(1,0,0,1,0,0) translate(-96,-39)"><g/><text fill="rgb(0, 0, 0)" stroke="none" font-family="&quot;Arial&quot;" font-size="24px" font-style="normal" font-weight="normal" text-decoration="" line-height="27px" x="3" y="21">Routeur</text></g><g transform="translate(96,39) matrix(1,0,0,1,0,0) translate(-96,-39)"><g/></g></g><g transform="translate(0.5,0.5) matrix(1,0,0,1,24,339)"><g><g transform="translate(0,0) scale(1,1.004405994294974)"><g><path fill="#3966A0" stroke="rgb(0,0,0)" d="M 123 62.299 L 112.006 62.299 L 112.006 5 C 112.006 2.243 109.764 0 107.006 0 L 18.993 0 C 16.236 0 13.993 2.243 13.993 5 L 13.993 62.299 L 3 62.299 L 0 62.299 L 0 65.299 L 0 68.485 C 0 71.954 2.328 74.671 5.3 74.671 L 120.699 74.671 C 123.671 74.671 126 71.954 126 68.485 L 126 65.299 L 126 62.299 L 123 62.299 Z" stroke-opacity="0" stroke-miterlimit="10"/></g><g><g><path fill="#FFFFFF" stroke="rgb(0,0,0)" d="M 107.027 2.999 L 19.014 2.999 C 17.914 2.999 17.014 3.899 17.014 4.999 L 17.014 62.299 L 109.027 62.299 L 109.027 4.999 C 109.027 3.899 108.127 2.999 107.027 2.999 Z M 103.275 60.506 L 33.613 60.506 L 22.765 60.506 L 22.765 8.75 L 63.495 8.75 L 103.275 8.75 L 103.275 60.506 Z" opacity="0.93" stroke-opacity="0" stroke-miterlimit="10"/></g></g><g><g><path fill="#FFFFFF" stroke="rgb(0,0,0)" d="M 112.607 65.299 L 112.607 65.299 L 71.455 65.301 L 71.455 65.893 C 71.455 66.768 70.937 67.485 70.305 67.485 L 56.12 67.485 C 55.487 67.485 54.97 66.768 54.97 65.893 L 54.97 65.301 L 14.521 65.301 L 14.521 65.299 L 3.021 65.299 L 3.021 68.485 C 3.021 70.235 4.056 71.669 5.321 71.669 L 120.721 71.669 C 121.985 71.669 123.022 70.235 123.022 68.485 L 123.022 65.299 L 112.607 65.299 Z" opacity="0.85" stroke-opacity="0" stroke-miterlimit="10"/></g></g><g><path fill="#FFFFFF" stroke="rgb(0,0,0)" d="M 63.495 8.75 L 22.765 8.75 L 22.765 60.506 L 33.613 60.506 L 63.495 8.75 Z" opacity="0.1" stroke-opacity="0" stroke-miterlimit="10"/></g></g></g></g><g transform="translate(0.5,0.5) matrix(1,0,0,1,273.3730669589464,331)"><g><g transform="translate(0,0) scale(1,1)"><g><path fill="#3966A0" stroke="rgb(0,0,0)" d="M 43 0 L 8 0 C 3.6 0 0 3.6 0 8 L 0 83 C 0 87.4 3.6 91 8 91 L 43 91 C 47.4 91 51 87.4 51 83 L 51 8 C 51 3.6 47.4 0 43 0 Z" stroke-opacity="0" stroke-miterlimit="10"/></g><g><path fill="#FFFFFF" stroke="rgb(0,0,0)" d="M 43 3 L 8 3 C 5.2 3 3 5.2 3 8 L 3 83 C 3 85.8 5.2 88 8 88 L 43 88 C 45.8 88 48 85.8 48 83 L 48 8 C 48 5.3 45.7 3 43 3 Z M 23.5 7.5 L 27.5 7.5 C 28.3 7.5 29 8.2 29 9 C 29 9.8 28.3 10.5 27.5 10.5 L 23.5 10.5 C 22.7 10.5 22 9.8 22 9 C 22 8.2 22.7 7.5 23.5 7.5 Z M 25.5 85.3 C 23.8 85.3 22.5 84 22.5 82.3 C 22.5 80.6 23.8 79.3 25.5 79.3 C 27.2 79.3 28.5 80.6 28.5 82.3 C 28.5 84 27.2 85.3 25.5 85.3 Z M 45.5 76.7 L 5.5 76.7 L 5.5 49 L 5.5 14.3 L 25.5 14.3 L 45.5 14.3 L 45.5 76.7 Z" opacity="0.93" stroke-opacity="0" stroke-miterlimit="10"/></g><g><g><path fill="#FFFFFF" stroke="rgb(0,0,0)" d="M 5.5 14.3 L 5.5 49 L 25.5 14.3 L 5.5 14.3 Z" opacity="0.15" stroke-opacity="0" stroke-miterlimit="10"/></g></g></g></g></g><g transform="translate(0.5,0.5) matrix(0.8660254037844387,0.49999999999999994,-0.49999999999999994,0.8660254037844387,133.95001850481376,196)"><g><g transform="translate(0,0) scale(1.1064806001323804,1.2059369202226344) translate(0.04245468,0)"><g><g><path fill="#3966A0" stroke="rgb(0,0,0)" d="M 70 44.1 C 69.3 42.8 67.8 42.1 65.9 42.1 L 34.7 42.3 C 33.8 42.3 33 42 32.5 41.4 C 32 40.8 31.8 40 31.9 39.1 L 36.8 3.9 C 37 2.2 36.9 1.2 36.3 0.6 C 36 0.2 35.5 0 35 0 C 33.8 0 32.9 1.2 32.3 2.4 L 0.7 59.6 C -0.2 61.2 -0.3 62.9 0.5 64.2 C 1.3 65.5 2.8 66.2 4.6 66.2 L 31.5 66.3 C 32.4 66.3 33.2 66.6 33.8 67.3 C 34.4 67.9 34.6 68.8 34.5 69.7 L 30.9 103.9 C 30.7 105.5 30.9 106.6 31.5 107.2 C 31.9 107.6 32.4 107.8 32.9 107.8 C 34.2 107.8 35.1 106.6 35.7 105.5 L 69.6 48.6 C 70.6 47 70.7 45.4 70 44.1 Z" stroke-opacity="0" stroke-miterlimit="10"/></g><g><path fill="#FFFFFF" stroke="rgb(0,0,0)" d="M 65.9 45.1 L 34.7 45.3 C 32.9 45.3 31.3 44.6 30.2 43.3 C 29.1 42 28.6 40.4 28.9 38.6 L 33.3 6.5 L 3.3 61.1 C 2.9 61.8 2.8 62.4 3 62.7 C 3.2 63 3.8 63.3 4.5 63.3 L 31.4 63.4 C 33.2 63.4 34.8 64.1 35.9 65.4 C 37 66.7 37.6 68.3 37.4 70.1 L 34 102.6 L 67 47.3 C 67.4 46.7 67.5 46.1 67.3 45.8 C 67.2 45.3 66.6 45.1 65.9 45.1 Z" opacity="0.93" stroke-opacity="0" stroke-miterlimit="10"/></g></g></g></g></g><g transform="translate(0.5,0.5) matrix(0.8660254037844379,-0.5000000000000012,0.5000000000000012,0.8660254037844379,181.62693304105352,232.16987298107793)"><g><g transform="translate(0,0) scale(1.191594492450256,1.2987012987012987) translate(0.04245468,0)"><g><g><path fill="#3966A0" stroke="rgb(0,0,0)" d="M 70 44.1 C 69.3 42.8 67.8 42.1 65.9 42.1 L 34.7 42.3 C 33.8 42.3 33 42 32.5 41.4 C 32 40.8 31.8 40 31.9 39.1 L 36.8 3.9 C 37 2.2 36.9 1.2 36.3 0.6 C 36 0.2 35.5 0 35 0 C 33.8 0 32.9 1.2 32.3 2.4 L 0.7 59.6 C -0.2 61.2 -0.3 62.9 0.5 64.2 C 1.3 65.5 2.8 66.2 4.6 66.2 L 31.5 66.3 C 32.4 66.3 33.2 66.6 33.8 67.3 C 34.4 67.9 34.6 68.8 34.5 69.7 L 30.9 103.9 C 30.7 105.5 30.9 106.6 31.5 107.2 C 31.9 107.6 32.4 107.8 32.9 107.8 C 34.2 107.8 35.1 106.6 35.7 105.5 L 69.6 48.6 C 70.6 47 70.7 45.4 70 44.1 Z" stroke-opacity="0" stroke-miterlimit="10"/></g><g><path fill="#FFFFFF" stroke="rgb(0,0,0)" d="M 65.9 45.1 L 34.7 45.3 C 32.9 45.3 31.3 44.6 30.2 43.3 C 29.1 42 28.6 40.4 28.9 38.6 L 33.3 6.5 L 3.3 61.1 C 2.9 61.8 2.8 62.4 3 62.7 C 3.2 63 3.8 63.3 4.5 63.3 L 31.4 63.4 C 33.2 63.4 34.8 64.1 35.9 65.4 C 37 66.7 37.6 68.3 37.4 70.1 L 34 102.6 L 67 47.3 C 67.4 46.7 67.5 46.1 67.3 45.8 C 67.2 45.3 66.6 45.1 65.9 45.1 Z" opacity="0.93" stroke-opacity="0" stroke-miterlimit="10"/></g></g></g></g></g><g transform="translate(0,0) matrix(1,0,0,1,400,101.24737298107785)"><g><g transform="translate(0,0) scale(0.8370039175839091,1.01845)"><g><g><path fill="#02709F" stroke="#FFFFFF" d="M 87.945 22.58 L 87.945 63.783 L 80.608 76.357 L 80.608 35.15 L 87.945 22.58 Z" stroke-miterlimit="10" stroke-width="1.6164"/></g><g><path fill="#02709F" stroke="#FFFFFF" d="M 17.067 11.281 L -1.09 11.281 L 6.242 -0.608 L 24.396 -0.608 L 69.788 22.58 L 87.945 22.58 L 80.608 35.15 L 62.455 35.15" stroke-miterlimit="10" stroke-width="1.6164"/></g><g><path fill="#02709F" stroke="#FFFFFF" d="M 17.115 11.328 L 62.507 35.15 L 62.455 35.15 L 80.608 35.15 L 80.608 76.357 L 62.455 76.357 L 62.507 76.357 L 17.115 99.392 L 17.067 99.326 L -1.09 99.326 L -1.09 11.235 L 17.067 11.235 L 17.115 11.328 Z" stroke-miterlimit="10" stroke-width="1.6164"/></g><g><path fill="#FFFFFF" stroke="rgb(0,0,0)" d="M 58.217 54.367 L 58.217 49.041 L 74.208 55.552 L 58.217 62.138 L 58.217 56.814 L 22.639 56.814 L 22.639 54.367 L 58.217 54.367 Z" stroke-opacity="0" stroke-miterlimit="10"/></g><g><path fill="#FFFFFF" stroke="rgb(0,0,0)" d="M 21.547 34.841 L 21.547 32.74 L 46.44 32.74 L 62.132 41.351 L 64.696 36.677 L 75.581 50.076 L 58.394 48.164 L 60.956 43.488 L 46.531 35.054 L 21.547 34.841 Z" stroke-opacity="0" stroke-miterlimit="10"/></g><g><path fill="#FFFFFF" stroke="rgb(0,0,0)" d="M 46.531 76.554 L 60.956 68.125 L 58.394 63.453 L 75.581 61.535 L 64.696 74.937 L 62.132 70.259 L 46.44 78.867 L 21.547 78.867 L 21.547 76.775 L 46.531 76.554 Z" stroke-opacity="0" stroke-miterlimit="10"/></g></g></g></g></g><g transform="matrix(1,0,0,1,393,205)"><g transform="translate(94,39) matrix(1,0,0,1,0,0) translate(-94,-39)"><g/></g><g transform="translate(94,39) matrix(1,0,0,1,0,0) translate(-94,-39)"><g/></g><g transform="translate(94,39) matrix(1,0,0,1,0,0) translate(-94,-39)"><g/></g><g transform="translate(94,39) matrix(1,0,0,1,0,0) translate(-94,-39)"><g/></g><g transform="translate(94,39) matrix(1,0,0,1,0,0) translate(-94,-39)"><g/><text fill="rgb(0, 0, 0)" stroke="none" font-family="&quot;Arial&quot;" font-size="24px" font-style="normal" font-weight="normal" text-decoration="" line-height="27px" x="3" y="21">DSLAM</text></g><g transform="translate(94,39) matrix(1,0,0,1,0,0) translate(-94,-39)"><g/></g></g><g transform="matrix(1,0,0,1,248.5,147.66987298107784)"><g transform="translate(0,0)"><g transform="translate(-202,-129) translate(-46.5,-18.669872981077845) matrix(1,0,0,1,0,0)"><g><path fill="none" stroke="#000000" d="M 253 152.16987298107784 L 400 152.16987298107784" stroke-miterlimit="10" stroke-width="2"/></g></g></g></g><g transform="translate(0.5,0.5) matrix(1,0,0,1,560,120)"><g><g transform="translate(0,0) scale(0.8109895833333333,1.003405497445877)"><g><g><path fill="#3966A0" stroke="rgb(0,0,0)" d="M 102.635 0 C 93.815 0 86.371 6.797 85.395 15.43 L 4.554 15.43 C 2.043 15.431 0 17.473 0 19.984 L 0 53.338 C 0 55.849 2.043 57.892 4.554 57.892 L 8.016 57.892 L 8.016 65.776 L 96.471 65.776 L 96.471 57.892 L 99.672 57.892 C 102.184 57.892 104.227 55.849 104.227 53.338 L 104.227 34.655 C 107.211 34.382 109.971 33.334 112.331 31.735 L 112.331 31.735 C 112.785 31.428 113.223 31.1 113.643 30.753 C 113.655 30.744 113.665 30.734 113.676 30.725 C 114.093 30.38 114.492 30.017 114.875 29.635 C 114.875 29.635 114.887 29.623 114.893 29.617 C 118.039 26.471 120 22.143 120 17.365 C 120 7.79 112.21 0 102.635 0 Z" stroke-opacity="0" stroke-miterlimit="10"/></g><g><path fill="#FFFFFF" stroke="rgb(0,0,0)" d="M 102.688 3.191 C 94.836 3.191 88.45 9.579 88.45 17.43 C 88.45 25.281 94.838 31.669 102.688 31.669 C 110.54 31.669 116.926 25.281 116.926 17.43 C 116.926 9.579 110.539 3.191 102.688 3.191 Z M 97.377 20.901 C 97.118 20.901 96.859 20.802 96.662 20.605 C 96.267 20.21 96.267 19.569 96.662 19.174 L 97.412 18.424 L 91.228 18.424 C 90.669 18.424 90.216 17.971 90.216 17.412 C 90.216 16.853 90.67 16.4 91.229 16.4 L 97.414 16.4 L 96.699 15.686 C 96.303 15.291 96.303 14.65 96.699 14.255 C 97.095 13.86 97.735 13.86 98.13 14.255 L 100.571 16.696 C 100.665 16.79 100.739 16.902 100.791 17.026 C 100.894 17.273 100.894 17.552 100.791 17.799 C 100.739 17.924 100.665 18.036 100.571 18.129 L 98.093 20.605 C 97.895 20.802 97.637 20.901 97.377 20.901 Z M 105.863 25.522 L 103.422 27.963 C 103.225 28.161 102.965 28.259 102.707 28.259 C 102.698 28.259 102.689 28.254 102.68 28.254 C 102.671 28.254 102.663 28.259 102.655 28.259 C 102.305 28.259 102.012 28.07 101.83 27.801 L 99.515 25.484 C 99.119 25.089 99.119 24.448 99.515 24.053 C 99.91 23.658 100.55 23.658 100.945 24.053 L 101.644 24.752 L 101.644 9.174 L 100.945 9.873 C 100.748 10.071 100.488 10.169 100.23 10.169 C 99.97 10.169 99.711 10.07 99.515 9.873 C 99.119 9.478 99.119 8.837 99.515 8.442 L 101.954 6 C 102.35 5.605 102.988 5.605 103.385 6 L 105.864 8.478 C 106.26 8.873 106.26 9.514 105.864 9.909 C 105.667 10.107 105.408 10.205 105.149 10.205 C 104.889 10.205 104.63 10.106 104.434 9.909 L 103.667 9.143 L 103.667 24.857 L 104.434 24.091 C 104.829 23.696 105.468 23.696 105.864 24.091 C 106.258 24.486 106.258 25.126 105.863 25.522 Z M 114.148 18.46 L 107.964 18.46 L 108.677 19.174 C 109.073 19.569 109.073 20.21 108.677 20.605 C 108.48 20.803 108.22 20.901 107.961 20.901 C 107.702 20.901 107.442 20.802 107.246 20.605 L 104.808 18.165 C 104.713 18.072 104.64 17.959 104.587 17.835 C 104.485 17.588 104.485 17.309 104.587 17.062 C 104.64 16.937 104.713 16.825 104.808 16.732 L 107.284 14.255 C 107.68 13.86 108.32 13.86 108.715 14.255 C 109.11 14.65 109.11 15.291 108.715 15.686 L 107.964 16.437 L 114.149 16.437 C 114.708 16.437 115.161 16.89 115.161 17.449 C 115.16 18.008 114.707 18.46 114.148 18.46 Z" stroke-opacity="0" stroke-miterlimit="10"/></g><g><path fill="#FFFFFF" stroke="rgb(0,0,0)" d="M 80.533 36.476 A 3.247 3.247 0 1 0 80.53299837650013 36.47924699945883 Z" opacity="0.5" stroke-opacity="0" stroke-miterlimit="10"/></g><g><path fill="#FFFFFF" stroke="rgb(0,0,0)" d="M 9.278 35.006 L 20.39 35.006 L 20.39 24 L 9.278 24 L 9.278 35.006 Z M 10.929 25.567 L 18.819 25.567 L 18.819 31.173 L 16.536 31.173 L 16.536 33.456 L 13.213 33.456 L 13.213 31.173 L 10.93 31.173 L 10.929 25.567 L 10.929 25.567 Z" opacity="0.65" stroke-opacity="0" stroke-miterlimit="10"/></g><g><path fill="#FFFFFF" stroke="rgb(0,0,0)" d="M 24.253 35.015 L 35.365 35.015 L 35.365 24.009 L 24.253 24.009 L 24.253 35.015 Z M 25.904 25.576 L 33.794 25.576 L 33.794 31.182 L 31.51 31.182 L 31.51 33.465 L 28.187 33.465 L 28.187 31.182 L 25.904 31.182 L 25.904 25.576 Z" opacity="0.65" stroke-opacity="0" stroke-miterlimit="10"/></g><g><path fill="#FFFFFF" stroke="rgb(0,0,0)" d="M 50.3 24.009 L 39.188 24.009 L 39.188 35.014 L 50.3 35.014 L 50.3 24.009 Z M 48.729 31.173 L 46.446 31.173 L 46.446 33.456 L 43.123 33.456 L 43.123 31.173 L 40.84 31.173 L 40.84 25.567 L 48.73 25.567 L 48.729 31.173 L 48.729 31.173 Z" opacity="0.65" stroke-opacity="0" stroke-miterlimit="10"/></g><g><path fill="#FFFFFF" stroke="rgb(0,0,0)" d="M 54.123 35.023 L 65.234 35.023 L 65.234 24.018 L 54.123 24.018 L 54.123 35.023 Z M 55.774 25.567 L 63.664 25.567 L 63.664 31.173 L 61.38 31.173 L 61.38 33.456 L 58.057 33.456 L 58.057 31.173 L 55.774 31.173 L 55.774 25.567 Z" opacity="0.65" stroke-opacity="0" stroke-miterlimit="10"/></g><g><path fill="#FFFFFF" stroke="rgb(0,0,0)" d="M 9.278 49.95 L 20.39 49.95 L 20.39 38.944 L 9.278 38.944 L 9.278 49.95 Z M 10.929 40.502 L 18.819 40.502 L 18.819 46.108 L 16.536 46.108 L 16.536 48.391 L 13.213 48.391 L 13.213 46.108 L 10.93 46.108 L 10.929 40.502 L 10.929 40.502 Z" opacity="0.65" stroke-opacity="0" stroke-miterlimit="10"/></g><g><path fill="#FFFFFF" stroke="rgb(0,0,0)" d="M 24.253 49.958 L 35.365 49.958 L 35.365 38.953 L 24.253 38.953 L 24.253 49.958 Z M 25.904 40.52 L 33.794 40.52 L 33.794 46.126 L 31.51 46.126 L 31.51 48.408 L 28.187 48.408 L 28.187 46.126 L 25.904 46.126 L 25.904 40.52 Z" opacity="0.65" stroke-opacity="0" stroke-miterlimit="10"/></g><g><path fill="#FFFFFF" stroke="rgb(0,0,0)" d="M 39.228 49.966 L 50.34 49.966 L 50.34 38.962 L 39.228 38.962 L 39.228 49.966 Z M 40.839 40.511 L 48.729 40.511 L 48.729 46.117 L 46.446 46.117 L 46.446 48.4 L 43.123 48.4 L 43.123 46.117 L 40.84 46.117 L 40.839 40.511 L 40.839 40.511 Z" opacity="0.65" stroke-opacity="0" stroke-miterlimit="10"/></g><g><path fill="#FFFFFF" stroke="rgb(0,0,0)" d="M 54.123 49.966 L 65.234 49.966 L 65.234 38.962 L 54.123 38.962 L 54.123 49.966 Z M 55.774 40.511 L 63.664 40.511 L 63.664 46.117 L 61.38 46.117 L 61.38 48.4 L 58.057 48.4 L 58.057 46.117 L 55.774 46.117 L 55.774 40.511 Z" opacity="0.65" stroke-opacity="0" stroke-miterlimit="10"/></g><g><path fill="#FFFFFF" stroke="rgb(0,0,0)" d="M 11.504 57.898 L 92.919 57.898 Q 92.919 57.898 92.919 57.898 L 92.919 62.69 Q 92.919 62.69 92.919 62.69 L 11.504 62.69 Q 11.504 62.69 11.504 62.69 L 11.504 57.898 Q 11.504 57.898 11.504 57.898 Z" opacity="0.7" stroke-opacity="0" stroke-miterlimit="10"/></g><g><path fill="#FFFFFF" stroke="rgb(0,0,0)" d="M 85.525 18.936 L 5.082 18.936 C 4.255 18.936 3.582 19.609 3.582 20.436 L 3.582 53.397 C 3.582 54.224 4.255 54.897 5.082 54.897 L 11.504 54.897 L 92.919 54.897 L 99.082 54.897 C 99.909 54.897 100.582 54.224 100.582 53.397 L 100.582 34.526 C 92.561 33.543 86.232 27.039 85.525 18.936 Z M 20.389 49.95 L 9.278 49.95 L 9.278 38.944 L 20.39 38.944 L 20.389 49.95 L 20.389 49.95 Z M 20.389 35.006 L 9.278 35.006 L 9.278 24 L 20.39 24 L 20.389 35.006 L 20.389 35.006 Z M 35.365 49.958 L 24.253 49.958 L 24.253 38.953 L 35.365 38.953 L 35.365 49.958 Z M 35.365 35.015 L 24.253 35.015 L 24.253 24.009 L 35.365 24.009 L 35.365 35.015 Z M 39.188 24.009 L 50.3 24.009 L 50.3 35.014 L 39.188 35.014 L 39.188 24.009 Z M 50.34 49.966 L 39.228 49.966 L 39.228 38.962 L 50.34 38.962 L 50.34 49.966 Z M 65.234 49.966 L 54.123 49.966 L 54.123 38.962 L 65.234 38.962 L 65.234 49.966 Z M 65.234 35.023 L 54.123 35.023 L 54.123 24.018 L 65.234 24.018 L 65.234 35.023 Z M 77.286 39.723 C 75.493 39.723 74.039 38.269 74.039 36.476 C 74.039 34.683 75.493 33.229 77.286 33.229 C 79.079 33.229 80.533 34.683 80.533 36.476 C 80.533 38.269 79.08 39.723 77.286 39.723 Z M 89.541 39.723 C 87.748 39.723 86.294 38.269 86.294 36.476 C 86.294 34.683 87.748 33.229 89.541 33.229 C 91.334 33.229 92.788 34.683 92.788 36.476 C 92.787 38.269 91.334 39.723 89.541 39.723 Z" opacity="0.93" stroke-opacity="0" stroke-miterlimit="10"/></g></g></g></g></g><g transform="translate(0.5,0.5) matrix(1,0,0,1,660,228.79165124598853)"><g><g transform="translate(0,0) scale(0.8109895833333333,1.003405497445877)"><g><g><path fill="#3966A0" stroke="rgb(0,0,0)" d="M 102.635 0 C 93.815 0 86.371 6.797 85.395 15.43 L 4.554 15.43 C 2.043 15.431 0 17.473 0 19.984 L 0 53.338 C 0 55.849 2.043 57.892 4.554 57.892 L 8.016 57.892 L 8.016 65.776 L 96.471 65.776 L 96.471 57.892 L 99.672 57.892 C 102.184 57.892 104.227 55.849 104.227 53.338 L 104.227 34.655 C 107.211 34.382 109.971 33.334 112.331 31.735 L 112.331 31.735 C 112.785 31.428 113.223 31.1 113.643 30.753 C 113.655 30.744 113.665 30.734 113.676 30.725 C 114.093 30.38 114.492 30.017 114.875 29.635 C 114.875 29.635 114.887 29.623 114.893 29.617 C 118.039 26.471 120 22.143 120 17.365 C 120 7.79 112.21 0 102.635 0 Z" stroke-opacity="0" stroke-miterlimit="10"/></g><g><path fill="#FFFFFF" stroke="rgb(0,0,0)" d="M 102.688 3.191 C 94.836 3.191 88.45 9.579 88.45 17.43 C 88.45 25.281 94.838 31.669 102.688 31.669 C 110.54 31.669 116.926 25.281 116.926 17.43 C 116.926 9.579 110.539 3.191 102.688 3.191 Z M 97.377 20.901 C 97.118 20.901 96.859 20.802 96.662 20.605 C 96.267 20.21 96.267 19.569 96.662 19.174 L 97.412 18.424 L 91.228 18.424 C 90.669 18.424 90.216 17.971 90.216 17.412 C 90.216 16.853 90.67 16.4 91.229 16.4 L 97.414 16.4 L 96.699 15.686 C 96.303 15.291 96.303 14.65 96.699 14.255 C 97.095 13.86 97.735 13.86 98.13 14.255 L 100.571 16.696 C 100.665 16.79 100.739 16.902 100.791 17.026 C 100.894 17.273 100.894 17.552 100.791 17.799 C 100.739 17.924 100.665 18.036 100.571 18.129 L 98.093 20.605 C 97.895 20.802 97.637 20.901 97.377 20.901 Z M 105.863 25.522 L 103.422 27.963 C 103.225 28.161 102.965 28.259 102.707 28.259 C 102.698 28.259 102.689 28.254 102.68 28.254 C 102.671 28.254 102.663 28.259 102.655 28.259 C 102.305 28.259 102.012 28.07 101.83 27.801 L 99.515 25.484 C 99.119 25.089 99.119 24.448 99.515 24.053 C 99.91 23.658 100.55 23.658 100.945 24.053 L 101.644 24.752 L 101.644 9.174 L 100.945 9.873 C 100.748 10.071 100.488 10.169 100.23 10.169 C 99.97 10.169 99.711 10.07 99.515 9.873 C 99.119 9.478 99.119 8.837 99.515 8.442 L 101.954 6 C 102.35 5.605 102.988 5.605 103.385 6 L 105.864 8.478 C 106.26 8.873 106.26 9.514 105.864 9.909 C 105.667 10.107 105.408 10.205 105.149 10.205 C 104.889 10.205 104.63 10.106 104.434 9.909 L 103.667 9.143 L 103.667 24.857 L 104.434 24.091 C 104.829 23.696 105.468 23.696 105.864 24.091 C 106.258 24.486 106.258 25.126 105.863 25.522 Z M 114.148 18.46 L 107.964 18.46 L 108.677 19.174 C 109.073 19.569 109.073 20.21 108.677 20.605 C 108.48 20.803 108.22 20.901 107.961 20.901 C 107.702 20.901 107.442 20.802 107.246 20.605 L 104.808 18.165 C 104.713 18.072 104.64 17.959 104.587 17.835 C 104.485 17.588 104.485 17.309 104.587 17.062 C 104.64 16.937 104.713 16.825 104.808 16.732 L 107.284 14.255 C 107.68 13.86 108.32 13.86 108.715 14.255 C 109.11 14.65 109.11 15.291 108.715 15.686 L 107.964 16.437 L 114.149 16.437 C 114.708 16.437 115.161 16.89 115.161 17.449 C 115.16 18.008 114.707 18.46 114.148 18.46 Z" stroke-opacity="0" stroke-miterlimit="10"/></g><g><path fill="#FFFFFF" stroke="rgb(0,0,0)" d="M 80.533 36.476 A 3.247 3.247 0 1 0 80.53299837650013 36.47924699945883 Z" opacity="0.5" stroke-opacity="0" stroke-miterlimit="10"/></g><g><path fill="#FFFFFF" stroke="rgb(0,0,0)" d="M 9.278 35.006 L 20.39 35.006 L 20.39 24 L 9.278 24 L 9.278 35.006 Z M 10.929 25.567 L 18.819 25.567 L 18.819 31.173 L 16.536 31.173 L 16.536 33.456 L 13.213 33.456 L 13.213 31.173 L 10.93 31.173 L 10.929 25.567 L 10.929 25.567 Z" opacity="0.65" stroke-opacity="0" stroke-miterlimit="10"/></g><g><path fill="#FFFFFF" stroke="rgb(0,0,0)" d="M 24.253 35.015 L 35.365 35.015 L 35.365 24.009 L 24.253 24.009 L 24.253 35.015 Z M 25.904 25.576 L 33.794 25.576 L 33.794 31.182 L 31.51 31.182 L 31.51 33.465 L 28.187 33.465 L 28.187 31.182 L 25.904 31.182 L 25.904 25.576 Z" opacity="0.65" stroke-opacity="0" stroke-miterlimit="10"/></g><g><path fill="#FFFFFF" stroke="rgb(0,0,0)" d="M 50.3 24.009 L 39.188 24.009 L 39.188 35.014 L 50.3 35.014 L 50.3 24.009 Z M 48.729 31.173 L 46.446 31.173 L 46.446 33.456 L 43.123 33.456 L 43.123 31.173 L 40.84 31.173 L 40.84 25.567 L 48.73 25.567 L 48.729 31.173 L 48.729 31.173 Z" opacity="0.65" stroke-opacity="0" stroke-miterlimit="10"/></g><g><path fill="#FFFFFF" stroke="rgb(0,0,0)" d="M 54.123 35.023 L 65.234 35.023 L 65.234 24.018 L 54.123 24.018 L 54.123 35.023 Z M 55.774 25.567 L 63.664 25.567 L 63.664 31.173 L 61.38 31.173 L 61.38 33.456 L 58.057 33.456 L 58.057 31.173 L 55.774 31.173 L 55.774 25.567 Z" opacity="0.65" stroke-opacity="0" stroke-miterlimit="10"/></g><g><path fill="#FFFFFF" stroke="rgb(0,0,0)" d="M 9.278 49.95 L 20.39 49.95 L 20.39 38.944 L 9.278 38.944 L 9.278 49.95 Z M 10.929 40.502 L 18.819 40.502 L 18.819 46.108 L 16.536 46.108 L 16.536 48.391 L 13.213 48.391 L 13.213 46.108 L 10.93 46.108 L 10.929 40.502 L 10.929 40.502 Z" opacity="0.65" stroke-opacity="0" stroke-miterlimit="10"/></g><g><path fill="#FFFFFF" stroke="rgb(0,0,0)" d="M 24.253 49.958 L 35.365 49.958 L 35.365 38.953 L 24.253 38.953 L 24.253 49.958 Z M 25.904 40.52 L 33.794 40.52 L 33.794 46.126 L 31.51 46.126 L 31.51 48.408 L 28.187 48.408 L 28.187 46.126 L 25.904 46.126 L 25.904 40.52 Z" opacity="0.65" stroke-opacity="0" stroke-miterlimit="10"/></g><g><path fill="#FFFFFF" stroke="rgb(0,0,0)" d="M 39.228 49.966 L 50.34 49.966 L 50.34 38.962 L 39.228 38.962 L 39.228 49.966 Z M 40.839 40.511 L 48.729 40.511 L 48.729 46.117 L 46.446 46.117 L 46.446 48.4 L 43.123 48.4 L 43.123 46.117 L 40.84 46.117 L 40.839 40.511 L 40.839 40.511 Z" opacity="0.65" stroke-opacity="0" stroke-miterlimit="10"/></g><g><path fill="#FFFFFF" stroke="rgb(0,0,0)" d="M 54.123 49.966 L 65.234 49.966 L 65.234 38.962 L 54.123 38.962 L 54.123 49.966 Z M 55.774 40.511 L 63.664 40.511 L 63.664 46.117 L 61.38 46.117 L 61.38 48.4 L 58.057 48.4 L 58.057 46.117 L 55.774 46.117 L 55.774 40.511 Z" opacity="0.65" stroke-opacity="0" stroke-miterlimit="10"/></g><g><path fill="#FFFFFF" stroke="rgb(0,0,0)" d="M 11.504 57.898 L 92.919 57.898 Q 92.919 57.898 92.919 57.898 L 92.919 62.69 Q 92.919 62.69 92.919 62.69 L 11.504 62.69 Q 11.504 62.69 11.504 62.69 L 11.504 57.898 Q 11.504 57.898 11.504 57.898 Z" opacity="0.7" stroke-opacity="0" stroke-miterlimit="10"/></g><g><path fill="#FFFFFF" stroke="rgb(0,0,0)" d="M 85.525 18.936 L 5.082 18.936 C 4.255 18.936 3.582 19.609 3.582 20.436 L 3.582 53.397 C 3.582 54.224 4.255 54.897 5.082 54.897 L 11.504 54.897 L 92.919 54.897 L 99.082 54.897 C 99.909 54.897 100.582 54.224 100.582 53.397 L 100.582 34.526 C 92.561 33.543 86.232 27.039 85.525 18.936 Z M 20.389 49.95 L 9.278 49.95 L 9.278 38.944 L 20.39 38.944 L 20.389 49.95 L 20.389 49.95 Z M 20.389 35.006 L 9.278 35.006 L 9.278 24 L 20.39 24 L 20.389 35.006 L 20.389 35.006 Z M 35.365 49.958 L 24.253 49.958 L 24.253 38.953 L 35.365 38.953 L 35.365 49.958 Z M 35.365 35.015 L 24.253 35.015 L 24.253 24.009 L 35.365 24.009 L 35.365 35.015 Z M 39.188 24.009 L 50.3 24.009 L 50.3 35.014 L 39.188 35.014 L 39.188 24.009 Z M 50.34 49.966 L 39.228 49.966 L 39.228 38.962 L 50.34 38.962 L 50.34 49.966 Z M 65.234 49.966 L 54.123 49.966 L 54.123 38.962 L 65.234 38.962 L 65.234 49.966 Z M 65.234 35.023 L 54.123 35.023 L 54.123 24.018 L 65.234 24.018 L 65.234 35.023 Z M 77.286 39.723 C 75.493 39.723 74.039 38.269 74.039 36.476 C 74.039 34.683 75.493 33.229 77.286 33.229 C 79.079 33.229 80.533 34.683 80.533 36.476 C 80.533 38.269 79.08 39.723 77.286 39.723 Z M 89.541 39.723 C 87.748 39.723 86.294 38.269 86.294 36.476 C 86.294 34.683 87.748 33.229 89.541 33.229 C 91.334 33.229 92.788 34.683 92.788 36.476 C 92.787 38.269 91.334 39.723 89.541 39.723 Z" opacity="0.93" stroke-opacity="0" stroke-miterlimit="10"/></g></g></g></g></g><g transform="translate(0.5,0.5) matrix(1,0,0,1,680,35.24737298107786)"><g><g transform="translate(0,0) scale(0.8109895833333333,1.003405497445877)"><g><g><path fill="#3966A0" stroke="rgb(0,0,0)" d="M 102.635 0 C 93.815 0 86.371 6.797 85.395 15.43 L 4.554 15.43 C 2.043 15.431 0 17.473 0 19.984 L 0 53.338 C 0 55.849 2.043 57.892 4.554 57.892 L 8.016 57.892 L 8.016 65.776 L 96.471 65.776 L 96.471 57.892 L 99.672 57.892 C 102.184 57.892 104.227 55.849 104.227 53.338 L 104.227 34.655 C 107.211 34.382 109.971 33.334 112.331 31.735 L 112.331 31.735 C 112.785 31.428 113.223 31.1 113.643 30.753 C 113.655 30.744 113.665 30.734 113.676 30.725 C 114.093 30.38 114.492 30.017 114.875 29.635 C 114.875 29.635 114.887 29.623 114.893 29.617 C 118.039 26.471 120 22.143 120 17.365 C 120 7.79 112.21 0 102.635 0 Z" stroke-opacity="0" stroke-miterlimit="10"/></g><g><path fill="#FFFFFF" stroke="rgb(0,0,0)" d="M 102.688 3.191 C 94.836 3.191 88.45 9.579 88.45 17.43 C 88.45 25.281 94.838 31.669 102.688 31.669 C 110.54 31.669 116.926 25.281 116.926 17.43 C 116.926 9.579 110.539 3.191 102.688 3.191 Z M 97.377 20.901 C 97.118 20.901 96.859 20.802 96.662 20.605 C 96.267 20.21 96.267 19.569 96.662 19.174 L 97.412 18.424 L 91.228 18.424 C 90.669 18.424 90.216 17.971 90.216 17.412 C 90.216 16.853 90.67 16.4 91.229 16.4 L 97.414 16.4 L 96.699 15.686 C 96.303 15.291 96.303 14.65 96.699 14.255 C 97.095 13.86 97.735 13.86 98.13 14.255 L 100.571 16.696 C 100.665 16.79 100.739 16.902 100.791 17.026 C 100.894 17.273 100.894 17.552 100.791 17.799 C 100.739 17.924 100.665 18.036 100.571 18.129 L 98.093 20.605 C 97.895 20.802 97.637 20.901 97.377 20.901 Z M 105.863 25.522 L 103.422 27.963 C 103.225 28.161 102.965 28.259 102.707 28.259 C 102.698 28.259 102.689 28.254 102.68 28.254 C 102.671 28.254 102.663 28.259 102.655 28.259 C 102.305 28.259 102.012 28.07 101.83 27.801 L 99.515 25.484 C 99.119 25.089 99.119 24.448 99.515 24.053 C 99.91 23.658 100.55 23.658 100.945 24.053 L 101.644 24.752 L 101.644 9.174 L 100.945 9.873 C 100.748 10.071 100.488 10.169 100.23 10.169 C 99.97 10.169 99.711 10.07 99.515 9.873 C 99.119 9.478 99.119 8.837 99.515 8.442 L 101.954 6 C 102.35 5.605 102.988 5.605 103.385 6 L 105.864 8.478 C 106.26 8.873 106.26 9.514 105.864 9.909 C 105.667 10.107 105.408 10.205 105.149 10.205 C 104.889 10.205 104.63 10.106 104.434 9.909 L 103.667 9.143 L 103.667 24.857 L 104.434 24.091 C 104.829 23.696 105.468 23.696 105.864 24.091 C 106.258 24.486 106.258 25.126 105.863 25.522 Z M 114.148 18.46 L 107.964 18.46 L 108.677 19.174 C 109.073 19.569 109.073 20.21 108.677 20.605 C 108.48 20.803 108.22 20.901 107.961 20.901 C 107.702 20.901 107.442 20.802 107.246 20.605 L 104.808 18.165 C 104.713 18.072 104.64 17.959 104.587 17.835 C 104.485 17.588 104.485 17.309 104.587 17.062 C 104.64 16.937 104.713 16.825 104.808 16.732 L 107.284 14.255 C 107.68 13.86 108.32 13.86 108.715 14.255 C 109.11 14.65 109.11 15.291 108.715 15.686 L 107.964 16.437 L 114.149 16.437 C 114.708 16.437 115.161 16.89 115.161 17.449 C 115.16 18.008 114.707 18.46 114.148 18.46 Z" stroke-opacity="0" stroke-miterlimit="10"/></g><g><path fill="#FFFFFF" stroke="rgb(0,0,0)" d="M 80.533 36.476 A 3.247 3.247 0 1 0 80.53299837650013 36.47924699945883 Z" opacity="0.5" stroke-opacity="0" stroke-miterlimit="10"/></g><g><path fill="#FFFFFF" stroke="rgb(0,0,0)" d="M 9.278 35.006 L 20.39 35.006 L 20.39 24 L 9.278 24 L 9.278 35.006 Z M 10.929 25.567 L 18.819 25.567 L 18.819 31.173 L 16.536 31.173 L 16.536 33.456 L 13.213 33.456 L 13.213 31.173 L 10.93 31.173 L 10.929 25.567 L 10.929 25.567 Z" opacity="0.65" stroke-opacity="0" stroke-miterlimit="10"/></g><g><path fill="#FFFFFF" stroke="rgb(0,0,0)" d="M 24.253 35.015 L 35.365 35.015 L 35.365 24.009 L 24.253 24.009 L 24.253 35.015 Z M 25.904 25.576 L 33.794 25.576 L 33.794 31.182 L 31.51 31.182 L 31.51 33.465 L 28.187 33.465 L 28.187 31.182 L 25.904 31.182 L 25.904 25.576 Z" opacity="0.65" stroke-opacity="0" stroke-miterlimit="10"/></g><g><path fill="#FFFFFF" stroke="rgb(0,0,0)" d="M 50.3 24.009 L 39.188 24.009 L 39.188 35.014 L 50.3 35.014 L 50.3 24.009 Z M 48.729 31.173 L 46.446 31.173 L 46.446 33.456 L 43.123 33.456 L 43.123 31.173 L 40.84 31.173 L 40.84 25.567 L 48.73 25.567 L 48.729 31.173 L 48.729 31.173 Z" opacity="0.65" stroke-opacity="0" stroke-miterlimit="10"/></g><g><path fill="#FFFFFF" stroke="rgb(0,0,0)" d="M 54.123 35.023 L 65.234 35.023 L 65.234 24.018 L 54.123 24.018 L 54.123 35.023 Z M 55.774 25.567 L 63.664 25.567 L 63.664 31.173 L 61.38 31.173 L 61.38 33.456 L 58.057 33.456 L 58.057 31.173 L 55.774 31.173 L 55.774 25.567 Z" opacity="0.65" stroke-opacity="0" stroke-miterlimit="10"/></g><g><path fill="#FFFFFF" stroke="rgb(0,0,0)" d="M 9.278 49.95 L 20.39 49.95 L 20.39 38.944 L 9.278 38.944 L 9.278 49.95 Z M 10.929 40.502 L 18.819 40.502 L 18.819 46.108 L 16.536 46.108 L 16.536 48.391 L 13.213 48.391 L 13.213 46.108 L 10.93 46.108 L 10.929 40.502 L 10.929 40.502 Z" opacity="0.65" stroke-opacity="0" stroke-miterlimit="10"/></g><g><path fill="#FFFFFF" stroke="rgb(0,0,0)" d="M 24.253 49.958 L 35.365 49.958 L 35.365 38.953 L 24.253 38.953 L 24.253 49.958 Z M 25.904 40.52 L 33.794 40.52 L 33.794 46.126 L 31.51 46.126 L 31.51 48.408 L 28.187 48.408 L 28.187 46.126 L 25.904 46.126 L 25.904 40.52 Z" opacity="0.65" stroke-opacity="0" stroke-miterlimit="10"/></g><g><path fill="#FFFFFF" stroke="rgb(0,0,0)" d="M 39.228 49.966 L 50.34 49.966 L 50.34 38.962 L 39.228 38.962 L 39.228 49.966 Z M 40.839 40.511 L 48.729 40.511 L 48.729 46.117 L 46.446 46.117 L 46.446 48.4 L 43.123 48.4 L 43.123 46.117 L 40.84 46.117 L 40.839 40.511 L 40.839 40.511 Z" opacity="0.65" stroke-opacity="0" stroke-miterlimit="10"/></g><g><path fill="#FFFFFF" stroke="rgb(0,0,0)" d="M 54.123 49.966 L 65.234 49.966 L 65.234 38.962 L 54.123 38.962 L 54.123 49.966 Z M 55.774 40.511 L 63.664 40.511 L 63.664 46.117 L 61.38 46.117 L 61.38 48.4 L 58.057 48.4 L 58.057 46.117 L 55.774 46.117 L 55.774 40.511 Z" opacity="0.65" stroke-opacity="0" stroke-miterlimit="10"/></g><g><path fill="#FFFFFF" stroke="rgb(0,0,0)" d="M 11.504 57.898 L 92.919 57.898 Q 92.919 57.898 92.919 57.898 L 92.919 62.69 Q 92.919 62.69 92.919 62.69 L 11.504 62.69 Q 11.504 62.69 11.504 62.69 L 11.504 57.898 Q 11.504 57.898 11.504 57.898 Z" opacity="0.7" stroke-opacity="0" stroke-miterlimit="10"/></g><g><path fill="#FFFFFF" stroke="rgb(0,0,0)" d="M 85.525 18.936 L 5.082 18.936 C 4.255 18.936 3.582 19.609 3.582 20.436 L 3.582 53.397 C 3.582 54.224 4.255 54.897 5.082 54.897 L 11.504 54.897 L 92.919 54.897 L 99.082 54.897 C 99.909 54.897 100.582 54.224 100.582 53.397 L 100.582 34.526 C 92.561 33.543 86.232 27.039 85.525 18.936 Z M 20.389 49.95 L 9.278 49.95 L 9.278 38.944 L 20.39 38.944 L 20.389 49.95 L 20.389 49.95 Z M 20.389 35.006 L 9.278 35.006 L 9.278 24 L 20.39 24 L 20.389 35.006 L 20.389 35.006 Z M 35.365 49.958 L 24.253 49.958 L 24.253 38.953 L 35.365 38.953 L 35.365 49.958 Z M 35.365 35.015 L 24.253 35.015 L 24.253 24.009 L 35.365 24.009 L 35.365 35.015 Z M 39.188 24.009 L 50.3 24.009 L 50.3 35.014 L 39.188 35.014 L 39.188 24.009 Z M 50.34 49.966 L 39.228 49.966 L 39.228 38.962 L 50.34 38.962 L 50.34 49.966 Z M 65.234 49.966 L 54.123 49.966 L 54.123 38.962 L 65.234 38.962 L 65.234 49.966 Z M 65.234 35.023 L 54.123 35.023 L 54.123 24.018 L 65.234 24.018 L 65.234 35.023 Z M 77.286 39.723 C 75.493 39.723 74.039 38.269 74.039 36.476 C 74.039 34.683 75.493 33.229 77.286 33.229 C 79.079 33.229 80.533 34.683 80.533 36.476 C 80.533 38.269 79.08 39.723 77.286 39.723 Z M 89.541 39.723 C 87.748 39.723 86.294 38.269 86.294 36.476 C 86.294 34.683 87.748 33.229 89.541 33.229 C 91.334 33.229 92.788 34.683 92.788 36.476 C 92.787 38.269 91.334 39.723 89.541 39.723 Z" opacity="0.93" stroke-opacity="0" stroke-miterlimit="10"/></g></g></g></g></g><g transform="translate(0.5,0.5) matrix(1,0,0,1,861.3020833333333,385.26560992386067)"><g><g transform="translate(0,0) scale(1,1.0033749885980114)"><g><g><path fill="#3966A0" stroke="rgb(0,0,0)" d="M 102.635 0 C 93.815 0 86.371 6.797 85.395 15.431 L 4.554 15.431 C 2.043 15.432 0 17.474 0 19.985 L 0 53.338 C 0 55.85 2.043 57.893 4.554 57.893 L 8.016 57.893 L 8.016 65.778 L 96.471 65.778 L 96.471 57.893 L 99.672 57.893 C 102.184 57.893 104.227 55.85 104.227 53.338 L 104.227 34.656 C 107.211 34.383 109.971 33.335 112.331 31.736 L 112.331 31.736 C 112.785 31.428 113.223 31.101 113.643 30.754 C 113.655 30.745 113.665 30.735 113.676 30.727 C 114.093 30.381 114.492 30.019 114.875 29.636 C 114.875 29.636 114.887 29.624 114.893 29.618 C 118.039 26.472 120 22.144 120 17.366 C 120 7.79 112.21 0 102.635 0 Z" stroke-opacity="0" stroke-miterlimit="10"/></g><g><path fill="#FFFFFF" stroke="rgb(0,0,0)" d="M 102.688 3.192 C 94.836 3.192 88.451 9.58 88.451 17.431 C 88.451 25.282 94.839 31.669 102.688 31.669 C 110.541 31.669 116.926 25.281 116.926 17.431 C 116.926 9.579 110.539 3.192 102.688 3.192 Z M 97.377 20.902 C 97.118 20.902 96.859 20.802 96.662 20.606 C 96.267 20.21 96.267 19.57 96.662 19.174 L 97.412 18.424 L 91.228 18.424 C 90.668 18.424 90.215 17.972 90.215 17.412 C 90.215 16.853 90.668 16.4 91.228 16.4 L 97.413 16.4 L 96.698 15.686 C 96.302 15.29 96.302 14.65 96.698 14.254 C 97.094 13.859 97.734 13.859 98.129 14.254 L 100.57 16.695 C 100.664 16.789 100.738 16.901 100.79 17.025 C 100.893 17.272 100.893 17.55 100.79 17.797 C 100.738 17.922 100.664 18.034 100.57 18.127 L 98.091 20.604 C 97.895 20.802 97.637 20.902 97.377 20.902 Z M 105.863 25.523 L 103.422 27.963 C 103.225 28.161 102.965 28.259 102.707 28.259 C 102.698 28.259 102.689 28.254 102.68 28.254 C 102.671 28.254 102.663 28.259 102.655 28.259 C 102.305 28.259 102.012 28.071 101.831 27.801 L 99.517 25.485 C 99.121 25.089 99.121 24.449 99.517 24.053 C 99.912 23.658 100.551 23.658 100.947 24.053 L 101.646 24.752 L 101.646 9.174 L 100.947 9.873 C 100.75 10.071 100.49 10.169 100.232 10.169 C 99.972 10.169 99.712 10.07 99.517 9.873 C 99.121 9.478 99.121 8.837 99.517 8.442 L 101.955 6 C 102.351 5.605 102.988 5.605 103.387 6 L 105.866 8.479 C 106.262 8.874 106.262 9.515 105.866 9.91 C 105.669 10.108 105.41 10.206 105.151 10.206 C 104.891 10.206 104.631 10.107 104.436 9.91 L 103.668 9.144 L 103.668 24.858 L 104.436 24.091 C 104.831 23.696 105.469 23.696 105.866 24.091 C 106.258 24.487 106.258 25.126 105.863 25.523 Z M 114.148 18.46 L 107.963 18.46 L 108.676 19.174 C 109.072 19.57 109.072 20.21 108.676 20.606 C 108.48 20.803 108.22 20.902 107.96 20.902 C 107.701 20.902 107.44 20.802 107.245 20.606 L 104.807 18.166 C 104.711 18.073 104.639 17.96 104.585 17.836 C 104.482 17.589 104.482 17.311 104.585 17.064 C 104.639 16.939 104.711 16.827 104.807 16.734 L 107.283 14.256 C 107.679 13.861 108.319 13.861 108.714 14.256 C 109.109 14.652 109.109 15.292 108.714 15.688 L 107.963 16.439 L 114.148 16.439 C 114.708 16.439 115.161 16.892 115.161 17.451 C 115.16 18.008 114.707 18.46 114.148 18.46 Z" stroke-opacity="0" stroke-miterlimit="10"/></g><g><path fill="#FFFFFF" stroke="rgb(0,0,0)" d="M 80.533 36.477 A 3.247 3.247 0 1 0 80.53299837650013 36.48024699945883 Z" opacity="0.5" stroke-opacity="0" stroke-miterlimit="10"/></g><g><path fill="#FFFFFF" stroke="rgb(0,0,0)" d="M 9.278 35.006 L 20.39 35.006 L 20.39 24 L 9.278 24 L 9.278 35.006 Z M 10.929 25.568 L 18.819 25.568 L 18.819 31.173 L 16.536 31.173 L 16.536 33.456 L 13.213 33.456 L 13.213 31.173 L 10.93 31.173 L 10.929 25.568 L 10.929 25.568 Z" opacity="0.65" stroke-opacity="0" stroke-miterlimit="10"/></g><g><path fill="#FFFFFF" stroke="rgb(0,0,0)" d="M 24.253 35.016 L 35.365 35.016 L 35.365 24.009 L 24.253 24.009 L 24.253 35.016 Z M 25.904 25.576 L 33.794 25.576 L 33.794 31.182 L 31.51 31.182 L 31.51 33.464 L 28.187 33.464 L 28.187 31.182 L 25.904 31.182 L 25.904 25.576 Z" opacity="0.65" stroke-opacity="0" stroke-miterlimit="10"/></g><g><path fill="#FFFFFF" stroke="rgb(0,0,0)" d="M 50.3 24.009 L 39.188 24.009 L 39.188 35.015 L 50.3 35.015 L 50.3 24.009 Z M 48.729 31.173 L 46.446 31.173 L 46.446 33.456 L 43.123 33.456 L 43.123 31.173 L 40.84 31.173 L 40.84 25.568 L 48.73 25.568 L 48.729 31.173 L 48.729 31.173 Z" opacity="0.65" stroke-opacity="0" stroke-miterlimit="10"/></g><g><path fill="#FFFFFF" stroke="rgb(0,0,0)" d="M 54.123 35.024 L 65.234 35.024 L 65.234 24.019 L 54.123 24.019 L 54.123 35.024 Z M 55.774 25.568 L 63.664 25.568 L 63.664 31.173 L 61.38 31.173 L 61.38 33.456 L 58.057 33.456 L 58.057 31.173 L 55.774 31.173 L 55.774 25.568 Z" opacity="0.65" stroke-opacity="0" stroke-miterlimit="10"/></g><g><path fill="#FFFFFF" stroke="rgb(0,0,0)" d="M 9.278 49.95 L 20.39 49.95 L 20.39 38.945 L 9.278 38.945 L 9.278 49.95 Z M 10.929 40.502 L 18.819 40.502 L 18.819 46.108 L 16.536 46.108 L 16.536 48.391 L 13.213 48.391 L 13.213 46.108 L 10.93 46.108 L 10.929 40.502 L 10.929 40.502 Z" opacity="0.65" stroke-opacity="0" stroke-miterlimit="10"/></g><g><path fill="#FFFFFF" stroke="rgb(0,0,0)" d="M 24.253 49.959 L 35.365 49.959 L 35.365 38.953 L 24.253 38.953 L 24.253 49.959 Z M 25.904 40.521 L 33.794 40.521 L 33.794 46.126 L 31.51 46.126 L 31.51 48.408 L 28.187 48.408 L 28.187 46.127 L 25.904 46.127 L 25.904 40.521 Z" opacity="0.65" stroke-opacity="0" stroke-miterlimit="10"/></g><g><path fill="#FFFFFF" stroke="rgb(0,0,0)" d="M 39.228 49.966 L 50.34 49.966 L 50.34 38.962 L 39.228 38.962 L 39.228 49.966 Z M 40.839 40.511 L 48.729 40.511 L 48.729 46.117 L 46.446 46.117 L 46.446 48.4 L 43.123 48.4 L 43.123 46.117 L 40.84 46.117 L 40.839 40.511 L 40.839 40.511 Z" opacity="0.65" stroke-opacity="0" stroke-miterlimit="10"/></g><g><path fill="#FFFFFF" stroke="rgb(0,0,0)" d="M 54.123 49.966 L 65.234 49.966 L 65.234 38.962 L 54.123 38.962 L 54.123 49.966 Z M 55.774 40.511 L 63.664 40.511 L 63.664 46.117 L 61.38 46.117 L 61.38 48.4 L 58.057 48.4 L 58.057 46.117 L 55.774 46.117 L 55.774 40.511 Z" opacity="0.65" stroke-opacity="0" stroke-miterlimit="10"/></g><g><path fill="#FFFFFF" stroke="rgb(0,0,0)" d="M 11.504 57.899 L 92.919 57.899 Q 92.919 57.899 92.919 57.899 L 92.919 62.691 Q 92.919 62.691 92.919 62.691 L 11.504 62.691 Q 11.504 62.691 11.504 62.691 L 11.504 57.899 Q 11.504 57.899 11.504 57.899 Z" opacity="0.7" stroke-opacity="0" stroke-miterlimit="10"/></g><g><path fill="#FFFFFF" stroke="rgb(0,0,0)" d="M 85.525 18.937 L 5.082 18.937 C 4.255 18.937 3.582 19.61 3.582 20.437 L 3.582 53.398 C 3.582 54.225 4.255 54.898 5.082 54.898 L 11.504 54.898 L 92.919 54.898 L 99.082 54.898 C 99.909 54.898 100.582 54.225 100.582 53.398 L 100.582 34.527 C 92.561 33.543 86.232 27.039 85.525 18.937 Z M 20.389 49.95 L 9.278 49.95 L 9.278 38.945 L 20.39 38.945 L 20.389 49.95 L 20.389 49.95 Z M 20.389 35.006 L 9.278 35.006 L 9.278 24 L 20.39 24 L 20.389 35.006 L 20.389 35.006 Z M 35.365 49.959 L 24.253 49.959 L 24.253 38.953 L 35.365 38.953 L 35.365 49.959 Z M 35.365 35.016 L 24.253 35.016 L 24.253 24.009 L 35.365 24.009 L 35.365 35.016 Z M 39.188 24.009 L 50.3 24.009 L 50.3 35.015 L 39.188 35.015 L 39.188 24.009 Z M 50.34 49.966 L 39.228 49.966 L 39.228 38.962 L 50.34 38.962 L 50.34 49.966 Z M 65.234 49.966 L 54.123 49.966 L 54.123 38.962 L 65.234 38.962 L 65.234 49.966 Z M 65.234 35.024 L 54.123 35.024 L 54.123 24.019 L 65.234 24.019 L 65.234 35.024 Z M 77.286 39.724 C 75.493 39.724 74.039 38.27 74.039 36.477 C 74.039 34.684 75.493 33.23 77.286 33.23 C 79.079 33.23 80.533 34.684 80.533 36.477 C 80.533 38.27 79.08 39.724 77.286 39.724 Z M 89.541 39.724 C 87.748 39.724 86.294 38.27 86.294 36.477 C 86.294 34.684 87.748 33.23 89.541 33.23 C 91.334 33.23 92.788 34.684 92.788 36.477 C 92.787 38.27 91.334 39.724 89.541 39.724 Z" opacity="0.93" stroke-opacity="0" stroke-miterlimit="10"/></g></g></g></g></g><g transform="matrix(1,0,0,1,876,453)"><g transform="translate(96,39) matrix(1,0,0,1,0,0) translate(-96,-39)"><g/></g><g transform="translate(96,39) matrix(1,0,0,1,0,0) translate(-96,-39)"><g/></g><g transform="translate(96,39) matrix(1,0,0,1,0,0) translate(-96,-39)"><g/></g><g transform="translate(96,39) matrix(1,0,0,1,0,0) translate(-96,-39)"><g/></g><g transform="translate(96,39) matrix(1,0,0,1,0,0) translate(-96,-39)"><g/><text fill="rgb(0, 0, 0)" stroke="none" font-family="&quot;Arial&quot;" font-size="24px" font-style="normal" font-weight="normal" text-decoration="" line-height="27px" x="3" y="21">Routeur</text></g><g transform="translate(96,39) matrix(1,0,0,1,0,0) translate(-96,-39)"><g/></g></g><g transform="matrix(1,0,0,1,470.02264380208334,147.66987298107784)"><g transform="translate(0,0)"><g transform="translate(-492,-151) translate(21.977356197916663,3.3301270189221555) matrix(1,0,0,1,0,0)"><g><path fill="none" stroke="#000000" d="M 474.52264380208334 152.16987298107784 L 560 153" stroke-miterlimit="10" stroke-width="2"/></g></g></g></g><g transform="matrix(1,0,0,1,604.159375,63.74737298107786)"><g transform="translate(0,0)"><g transform="translate(-622,-117) translate(17.840625000000045,53.25262701892214) matrix(1,0,0,1,0,0)"><g><path fill="none" stroke="#000000" d="M 608.659375 120 L 680 68.24737298107786" stroke-miterlimit="10" stroke-width="2"/></g></g></g></g><g transform="matrix(1,0,0,1,604.159375,181.5)"><g transform="translate(0,0)"><g transform="translate(-620,-179) translate(15.840625000000045,-2.5) matrix(1,0,0,1,0,0)"><g><path fill="none" stroke="#000000" d="M 608.659375 186 L 660 261.79165124598853" stroke-miterlimit="10" stroke-width="2"/></g></g></g></g><g transform="matrix(1,0,0,1,752.81875,132.29165124598853)"><g transform="translate(0,0)"><g transform="translate(-767,-262) translate(14.181249999999977,129.70834875401147) matrix(1,0,0,1,0,0)"><g><path fill="none" stroke="#000000" d="M 757.31875 261.79165124598853 L 976.3020833333334 136.79165124598853" stroke-miterlimit="10" stroke-width="2"/></g></g></g></g><g transform="matrix(1,0,0,1,772.81875,63.74737298107786)"><g transform="translate(0,0)"><g transform="translate(-782,-59) translate(9.181249999999977,-4.747372981077859) matrix(1,0,0,1,0,0)"><g><path fill="none" stroke="#000000" d="M 777.31875 68.24737298107786 L 976.3020833333334 136.79165124598853" stroke-miterlimit="10" stroke-width="2"/></g></g></g></g><g transform="matrix(1,0,0,1,916.8020833333333,248.4870170950615)"><g transform="translate(0,0)"><g transform="translate(-1043.68125,-262.01298290493855) translate(126.87916666666683,13.52596580987705) matrix(1,0,0,1,0,0)"><g><path fill="none" stroke="#000000" d="M 921.3020833333334 252.9870170950615 L 921.3020833333333 385.26560992386067" stroke-miterlimit="10" stroke-width="2"/></g></g></g></g><g transform="translate(0.5,0.5) matrix(1,0,0,1,685,391.51298290493855)"><g><g transform="translate(0,0) scale(1,1.016470588235294)"><g><g><path fill="#3966A0" stroke="rgb(0,0,0)" d="M 115.072 19.29 C 117.789 19.29 120 17.079 120 14.362 L 120 4.928 C 120 2.211 117.79 0 115.072 0 L 108.545 0 L 11.06 0 L 4.928 0 C 2.211 0 0 2.211 0 4.928 L 0 14.362 C 0 17.079 2.211 19.29 4.928 19.29 L 8.031 19.29 L 8.031 33.833 L 4.928 33.833 C 2.211 33.833 0 36.044 0 38.762 L 0 48.196 C 0 50.914 2.211 53.125 4.928 53.125 L 11.06 53.125 L 108.545 53.125 L 115.072 53.125 C 117.789 53.125 120 50.914 120 48.196 L 120 38.762 C 120 36.044 117.79 33.833 115.072 33.833 L 111.573 33.833 L 111.573 19.29 L 115.072 19.29 Z" stroke-opacity="0" stroke-miterlimit="10"/></g><g><path fill="#FFFFFF" stroke="rgb(0,0,0)" d="M 4.928 3.029 C 3.883 3.029 3.029 3.884 3.029 4.928 L 3.029 14.362 C 3.029 15.406 3.883 16.261 4.928 16.261 L 8.2 16.261 L 8.2 3.029 L 4.928 3.029 Z" opacity="0.93" stroke-opacity="0" stroke-miterlimit="10"/></g><g><path fill="#FFFFFF" stroke="rgb(0,0,0)" d="M 116.971 14.362 L 116.971 4.928 C 116.971 3.884 116.117 3.029 115.073 3.029 L 111.405 3.029 L 111.405 16.261 L 115.073 16.261 C 116.117 16.261 116.971 15.406 116.971 14.362 Z" opacity="0.93" stroke-opacity="0" stroke-miterlimit="10"/></g><g><path fill="#FFFFFF" stroke="rgb(0,0,0)" d="M 4.928 36.863 C 3.883 36.863 3.029 37.718 3.029 38.762 L 3.029 48.196 C 3.029 49.24 3.883 50.095 4.928 50.095 L 8.2 50.095 L 8.2 36.863 L 4.928 36.863 Z" opacity="0.93" stroke-opacity="0" stroke-miterlimit="10"/></g><g><path fill="#FFFFFF" stroke="rgb(0,0,0)" d="M 115.072 50.095 C 116.117 50.095 116.97 49.24 116.97 48.196 L 116.97 38.762 C 116.97 37.718 116.116 36.863 115.072 36.863 L 111.404 36.863 L 111.404 50.095 L 115.072 50.095 Z" opacity="0.93" stroke-opacity="0" stroke-miterlimit="10"/></g><g><path fill="#FFFFFF" stroke="rgb(0,0,0)" d="M 63.917 3.029 L 63.917 5.821 C 63.917 8.093 62.075 9.936 59.802 9.936 C 57.529 9.936 55.687 8.094 55.687 5.821 L 55.687 3.029 L 11.06 3.029 L 11.06 3.029 L 11.06 16.261 L 11.06 16.261 L 11.06 36.863 L 11.06 36.863 L 11.06 50.095 L 11.06 50.095 L 108.544 50.095 L 108.544 3.029 L 63.917 3.029 Z M 30.969 10.054 L 32.868 10.054 L 32.868 40.794 L 30.969 40.794 L 30.969 10.054 Z M 22.059 43.36 L 15.65 43.36 L 15.65 7.443 L 22.059 7.443 L 22.059 43.36 Z M 24.995 47.046 C 24.164 47.046 23.491 46.372 23.491 45.542 C 23.491 44.712 24.164 44.04 24.995 44.04 C 25.825 44.04 26.498 44.712 26.498 45.542 C 26.498 46.372 25.825 47.046 24.995 47.046 Z M 27.875 40.794 L 25.976 40.794 L 25.976 10.054 L 27.875 10.054 L 27.875 40.794 Z M 29.621 47.046 C 28.79 47.046 28.117 46.372 28.117 45.542 C 28.117 44.712 28.79 44.04 29.621 44.04 C 30.451 44.04 31.124 44.712 31.124 45.542 C 31.124 46.372 30.451 47.046 29.621 47.046 Z M 34.247 47.046 C 33.417 47.046 32.744 46.372 32.744 45.542 C 32.744 44.712 33.417 44.04 34.247 44.04 C 35.078 44.04 35.751 44.712 35.751 45.542 C 35.75 46.373 35.077 47.046 34.247 47.046 Z M 35.961 10.054 L 37.86 10.054 L 37.86 40.794 L 35.961 40.794 L 35.961 10.054 Z M 38.874 47.046 C 38.043 47.046 37.37 46.372 37.37 45.542 C 37.37 44.712 38.043 44.04 38.874 44.04 C 39.704 44.04 40.377 44.712 40.377 45.542 C 40.376 46.373 39.704 47.046 38.874 47.046 Z M 40.955 10.054 L 42.854 10.054 L 42.854 40.794 L 40.955 40.794 L 40.955 10.054 Z M 43.5 47.046 C 42.669 47.046 41.996 46.372 41.996 45.542 C 41.996 44.712 42.669 44.04 43.5 44.04 C 44.33 44.04 45.003 44.712 45.003 45.542 C 45.003 46.372 44.33 47.046 43.5 47.046 Z M 45.947 10.054 L 47.846 10.054 L 47.846 40.794 L 45.947 40.794 L 45.947 10.054 Z M 48.125 47.046 C 47.295 47.046 46.622 46.372 46.622 45.542 C 46.622 44.712 47.295 44.04 48.125 44.04 C 48.956 44.04 49.628 44.712 49.628 45.542 C 49.629 46.373 48.956 47.046 48.125 47.046 Z M 50.94 10.054 L 52.839 10.054 L 52.839 40.794 L 50.94 40.794 L 50.94 10.054 Z M 52.752 47.046 C 51.922 47.046 51.249 46.372 51.249 45.542 C 51.249 44.712 51.922 44.04 52.752 44.04 C 53.582 44.04 54.255 44.712 54.255 45.542 C 54.255 46.372 53.582 47.046 52.752 47.046 Z M 56.795 11.241 L 63.204 11.241 L 63.204 36.641 L 56.795 36.641 L 56.795 11.241 Z M 60 47.048 C 58.032 47.048 56.431 45.446 56.431 43.479 C 56.431 41.512 58.032 39.91 60 39.91 C 61.968 39.91 63.568 41.512 63.568 43.479 C 63.568 45.446 61.968 47.048 60 47.048 Z M 91.77 10.054 L 93.669 10.054 L 93.669 40.794 L 91.77 40.794 L 91.77 10.054 Z M 66.805 10.054 L 68.704 10.054 L 68.704 40.794 L 66.805 40.794 L 66.805 10.054 Z M 67.279 47.046 C 66.449 47.046 65.775 46.372 65.775 45.542 C 65.775 44.712 66.449 44.04 67.279 44.04 C 68.109 44.04 68.783 44.712 68.783 45.542 C 68.783 46.372 68.109 47.046 67.279 47.046 Z M 71.906 47.046 C 71.076 47.046 70.402 46.372 70.402 45.542 C 70.402 44.712 71.076 44.04 71.906 44.04 C 72.736 44.04 73.409 44.712 73.409 45.542 C 73.409 46.372 72.736 47.046 71.906 47.046 Z M 73.697 40.794 L 71.798 40.794 L 71.798 10.054 L 73.697 10.054 L 73.697 40.794 Z M 76.532 47.046 C 75.702 47.046 75.029 46.372 75.029 45.542 C 75.029 44.712 75.702 44.04 76.532 44.04 C 77.363 44.04 78.035 44.712 78.035 45.542 C 78.036 46.373 77.363 47.046 76.532 47.046 Z M 78.689 40.794 L 76.791 40.794 L 76.791 10.054 L 78.689 10.054 L 78.689 40.794 Z M 81.159 47.046 C 80.328 47.046 79.654 46.372 79.654 45.542 C 79.654 44.712 80.328 44.04 81.159 44.04 C 81.988 44.04 82.662 44.712 82.662 45.542 C 82.662 46.372 81.988 47.046 81.159 47.046 Z M 83.684 40.794 L 81.785 40.794 L 81.785 10.054 L 83.684 10.054 L 83.684 40.794 Z M 85.785 47.046 C 84.955 47.046 84.282 46.372 84.282 45.542 C 84.282 44.712 84.955 44.04 85.785 44.04 C 86.616 44.04 87.288 44.712 87.288 45.542 C 87.288 46.372 86.615 47.046 85.785 47.046 Z M 88.675 40.794 L 86.776 40.794 L 86.776 10.054 L 88.675 10.054 L 88.675 40.794 Z M 90.411 47.046 C 89.581 47.046 88.908 46.372 88.908 45.542 C 88.908 44.712 89.581 44.04 90.411 44.04 C 91.241 44.04 91.914 44.712 91.914 45.542 C 91.915 46.373 91.241 47.046 90.411 47.046 Z M 95.038 47.046 C 94.207 47.046 93.534 46.372 93.534 45.542 C 93.534 44.712 94.207 44.04 95.038 44.04 C 95.868 44.04 96.541 44.712 96.541 45.542 C 96.541 46.372 95.868 47.046 95.038 47.046 Z M 103.48 43.36 L 97.07 43.36 L 97.07 7.443 L 103.48 7.443 L 103.48 43.36 Z" opacity="0.5" stroke-opacity="0" stroke-miterlimit="10"/></g><g><path fill="#FFFFFF" stroke="rgb(0,0,0)" d="M 15.649 7.443 L 22.058 7.443 Q 22.058 7.443 22.058 7.443 L 22.058 43.361 Q 22.058 43.361 22.058 43.361 L 15.649 43.361 Q 15.649 43.361 15.649 43.361 L 15.649 7.443 Q 15.649 7.443 15.649 7.443 Z" opacity="0.25" stroke-opacity="0" stroke-miterlimit="10"/></g><g><path fill="#FFFFFF" stroke="rgb(0,0,0)" d="M 97.07 7.443 L 103.48 7.443 Q 103.48 7.443 103.48 7.443 L 103.48 43.361 Q 103.48 43.361 103.48 43.361 L 97.07 43.361 Q 97.07 43.361 97.07 43.361 L 97.07 7.443 Q 97.07 7.443 97.07 7.443 Z" opacity="0.25" stroke-opacity="0" stroke-miterlimit="10"/></g><g><path fill="#FFFFFF" stroke="rgb(0,0,0)" d="M 56.795 11.241 L 63.204 11.241 Q 63.204 11.241 63.204 11.241 L 63.204 36.641 Q 63.204 36.641 63.204 36.641 L 56.795 36.641 Q 56.795 36.641 56.795 36.641 L 56.795 11.241 Q 56.795 11.241 56.795 11.241 Z" opacity="0.25" stroke-opacity="0" stroke-miterlimit="10"/></g><g><path fill="#FFFFFF" stroke="rgb(0,0,0)" d="M 25.976 10.054 L 27.875 10.054 Q 27.875 10.054 27.875 10.054 L 27.875 40.794 Q 27.875 40.794 27.875 40.794 L 25.976 40.794 Q 25.976 40.794 25.976 40.794 L 25.976 10.054 Q 25.976 10.054 25.976 10.054 Z" opacity="0.75" stroke-opacity="0" stroke-miterlimit="10"/></g><g><path fill="#FFFFFF" stroke="rgb(0,0,0)" d="M 30.969 10.054 L 32.868 10.054 Q 32.868 10.054 32.868 10.054 L 32.868 40.794 Q 32.868 40.794 32.868 40.794 L 30.969 40.794 Q 30.969 40.794 30.969 40.794 L 30.969 10.054 Q 30.969 10.054 30.969 10.054 Z" opacity="0.75" stroke-opacity="0" stroke-miterlimit="10"/></g><g><path fill="#FFFFFF" stroke="rgb(0,0,0)" d="M 35.961 10.054 L 37.86 10.054 Q 37.86 10.054 37.86 10.054 L 37.86 40.794 Q 37.86 40.794 37.86 40.794 L 35.961 40.794 Q 35.961 40.794 35.961 40.794 L 35.961 10.054 Q 35.961 10.054 35.961 10.054 Z" opacity="0.75" stroke-opacity="0" stroke-miterlimit="10"/></g><g><path fill="#FFFFFF" stroke="rgb(0,0,0)" d="M 40.955 10.054 L 42.854 10.054 Q 42.854 10.054 42.854 10.054 L 42.854 40.794 Q 42.854 40.794 42.854 40.794 L 40.955 40.794 Q 40.955 40.794 40.955 40.794 L 40.955 10.054 Q 40.955 10.054 40.955 10.054 Z" opacity="0.75" stroke-opacity="0" stroke-miterlimit="10"/></g><g><path fill="#FFFFFF" stroke="rgb(0,0,0)" d="M 45.947 10.054 L 47.846 10.054 Q 47.846 10.054 47.846 10.054 L 47.846 40.794 Q 47.846 40.794 47.846 40.794 L 45.947 40.794 Q 45.947 40.794 45.947 40.794 L 45.947 10.054 Q 45.947 10.054 45.947 10.054 Z" opacity="0.75" stroke-opacity="0" stroke-miterlimit="10"/></g><g><path fill="#FFFFFF" stroke="rgb(0,0,0)" d="M 50.94 10.054 L 52.839 10.054 Q 52.839 10.054 52.839 10.054 L 52.839 40.794 Q 52.839 40.794 52.839 40.794 L 50.94 40.794 Q 50.94 40.794 50.94 40.794 L 50.94 10.054 Q 50.94 10.054 50.94 10.054 Z" opacity="0.75" stroke-opacity="0" stroke-miterlimit="10"/></g><g><path fill="#FFFFFF" stroke="rgb(0,0,0)" d="M 66.805 10.054 L 68.704 10.054 Q 68.704 10.054 68.704 10.054 L 68.704 40.794 Q 68.704 40.794 68.704 40.794 L 66.805 40.794 Q 66.805 40.794 66.805 40.794 L 66.805 10.054 Q 66.805 10.054 66.805 10.054 Z" opacity="0.75" stroke-opacity="0" stroke-miterlimit="10"/></g><g><path fill="#FFFFFF" stroke="rgb(0,0,0)" d="M 71.798 10.054 L 73.697 10.054 Q 73.697 10.054 73.697 10.054 L 73.697 40.794 Q 73.697 40.794 73.697 40.794 L 71.798 40.794 Q 71.798 40.794 71.798 40.794 L 71.798 10.054 Q 71.798 10.054 71.798 10.054 Z" opacity="0.75" stroke-opacity="0" stroke-miterlimit="10"/></g><g><path fill="#FFFFFF" stroke="rgb(0,0,0)" d="M 76.791 10.054 L 78.689 10.054 Q 78.689 10.054 78.689 10.054 L 78.689 40.794 Q 78.689 40.794 78.689 40.794 L 76.791 40.794 Q 76.791 40.794 76.791 40.794 L 76.791 10.054 Q 76.791 10.054 76.791 10.054 Z" opacity="0.75" stroke-opacity="0" stroke-miterlimit="10"/></g><g><path fill="#FFFFFF" stroke="rgb(0,0,0)" d="M 81.784 10.054 L 83.683 10.054 Q 83.683 10.054 83.683 10.054 L 83.683 40.794 Q 83.683 40.794 83.683 40.794 L 81.784 40.794 Q 81.784 40.794 81.784 40.794 L 81.784 10.054 Q 81.784 10.054 81.784 10.054 Z" opacity="0.75" stroke-opacity="0" stroke-miterlimit="10"/></g><g><path fill="#FFFFFF" stroke="rgb(0,0,0)" d="M 86.775 10.054 L 88.674 10.054 Q 88.674 10.054 88.674 10.054 L 88.674 40.794 Q 88.674 40.794 88.674 40.794 L 86.775 40.794 Q 86.775 40.794 86.775 40.794 L 86.775 10.054 Q 86.775 10.054 86.775 10.054 Z" opacity="0.75" stroke-opacity="0" stroke-miterlimit="10"/></g><g><path fill="#FFFFFF" stroke="rgb(0,0,0)" d="M 91.77 10.054 L 93.669 10.054 Q 93.669 10.054 93.669 10.054 L 93.669 40.794 Q 93.669 40.794 93.669 40.794 L 91.77 40.794 Q 91.77 40.794 91.77 40.794 L 91.77 10.054 Q 91.77 10.054 91.77 10.054 Z" opacity="0.75" stroke-opacity="0" stroke-miterlimit="10"/></g><g><path fill="#FFFFFF" stroke="rgb(0,0,0)" d="M 62.717 43.479 A 2.717 2.717 0 1 0 62.71699864150011 43.48171699954717 Z" stroke-opacity="0" stroke-miterlimit="10"/></g><g><path fill="#FFFFFF" stroke="rgb(0,0,0)" d="M 60 39.91 C 58.032 39.91 56.431 41.512 56.431 43.479 C 56.431 45.446 58.032 47.048 60 47.048 C 61.968 47.048 63.568 45.446 63.568 43.479 C 63.568 41.512 61.968 39.91 60 39.91 Z M 60 47.046 C 58.03 47.046 56.434 45.448 56.434 43.479 C 56.434 41.51 58.031 39.912 60 39.912 C 61.969 39.912 63.566 41.51 63.566 43.479 C 63.566 45.448 61.971 47.046 60 47.046 Z" opacity="0.75" stroke-opacity="0" stroke-miterlimit="10"/></g><g><path fill="#FFFFFF" stroke="rgb(0,0,0)" d="M 26.498 45.542 A 1.503 1.503 0 1 0 26.497999248500065 45.5435029997495 Z" opacity="0.25" stroke-opacity="0" stroke-miterlimit="10"/></g><g><path fill="#FFFFFF" stroke="rgb(0,0,0)" d="M 31.124 45.542 A 1.503 1.503 0 1 0 31.123999248500063 45.5435029997495 Z" opacity="0.25" stroke-opacity="0" stroke-miterlimit="10"/></g><g><path fill="#FFFFFF" stroke="rgb(0,0,0)" d="M 35.75 45.542 A 1.503 1.503 0 1 0 35.74999924850006 45.5435029997495 Z" opacity="0.25" stroke-opacity="0" stroke-miterlimit="10"/></g><g><path fill="#FFFFFF" stroke="rgb(0,0,0)" d="M 40.377 45.542 A 1.503 1.503 0 1 0 40.37699924850006 45.5435029997495 Z" opacity="0.25" stroke-opacity="0" stroke-miterlimit="10"/></g><g><path fill="#FFFFFF" stroke="rgb(0,0,0)" d="M 45.003 45.542 A 1.503 1.503 0 1 0 45.00299924850006 45.5435029997495 Z" opacity="0.25" stroke-opacity="0" stroke-miterlimit="10"/></g><g><path fill="#FFFFFF" stroke="rgb(0,0,0)" d="M 49.628 45.542 A 1.503 1.503 0 1 0 49.62799924850006 45.5435029997495 Z" opacity="0.25" stroke-opacity="0" stroke-miterlimit="10"/></g><g><path fill="#FFFFFF" stroke="rgb(0,0,0)" d="M 54.255 45.542 A 1.503 1.503 0 1 0 54.25499924850006 45.5435029997495 Z" opacity="0.25" stroke-opacity="0" stroke-miterlimit="10"/></g><g><path fill="#FFFFFF" stroke="rgb(0,0,0)" d="M 68.782 45.542 A 1.503 1.503 0 1 0 68.78199924850006 45.5435029997495 Z" opacity="0.25" stroke-opacity="0" stroke-miterlimit="10"/></g><g><path fill="#FFFFFF" stroke="rgb(0,0,0)" d="M 73.409 45.542 A 1.503 1.503 0 1 0 73.40899924850007 45.5435029997495 Z" opacity="0.25" stroke-opacity="0" stroke-miterlimit="10"/></g><g><path fill="#FFFFFF" stroke="rgb(0,0,0)" d="M 78.035 45.542 A 1.503 1.503 0 1 0 78.03499924850006 45.5435029997495 Z" opacity="0.25" stroke-opacity="0" stroke-miterlimit="10"/></g><g><path fill="#FFFFFF" stroke="rgb(0,0,0)" d="M 82.662 45.542 A 1.503 1.503 0 1 0 82.66199924850007 45.5435029997495 Z" opacity="0.25" stroke-opacity="0" stroke-miterlimit="10"/></g><g><path fill="#FFFFFF" stroke="rgb(0,0,0)" d="M 87.288 45.542 A 1.503 1.503 0 1 0 87.28799924850006 45.5435029997495 Z" opacity="0.25" stroke-opacity="0" stroke-miterlimit="10"/></g><g><path fill="#FFFFFF" stroke="rgb(0,0,0)" d="M 91.914 45.542 A 1.503 1.503 0 1 0 91.91399924850006 45.5435029997495 Z" opacity="0.25" stroke-opacity="0" stroke-miterlimit="10"/></g><g><path fill="#FFFFFF" stroke="rgb(0,0,0)" d="M 96.541 45.542 A 1.503 1.503 0 1 0 96.54099924850006 45.5435029997495 Z" opacity="0.25" stroke-opacity="0" stroke-miterlimit="10"/></g><g><path fill="#FFFFFF" stroke="rgb(0,0,0)" d="M 59.802 9.935 C 62.074 9.935 63.917 8.093 63.917 5.82 L 63.917 3.028 L 55.688 3.028 L 55.688 5.82 C 55.688 8.093 57.53 9.935 59.802 9.935 Z M 59.802 4.104 C 61.073 4.104 62.104 5.135 62.104 6.406 C 62.104 7.677 61.074 8.708 59.802 8.708 C 58.531 8.708 57.5 7.677 57.5 6.406 C 57.5 5.135 58.531 4.104 59.802 4.104 Z" opacity="0.25" stroke-opacity="0" stroke-miterlimit="10"/></g><g><path fill="#FFFFFF" stroke="rgb(0,0,0)" d="M 59.802 8.709 C 61.073 8.709 62.104 7.678 62.104 6.407 C 62.104 5.136 61.074 4.105 59.802 4.105 C 58.531 4.105 57.5 5.136 57.5 6.407 C 57.5 7.678 58.531 8.709 59.802 8.709 Z M 59.328 5.243 L 60.277 5.243 L 60.277 7.721 L 59.328 7.721 L 59.328 5.243 Z" stroke-opacity="0" stroke-miterlimit="10"/></g><g><path fill="#FFFFFF" stroke="rgb(0,0,0)" d="M 60 39.912 C 58.03 39.912 56.434 41.51 56.434 43.479 C 56.434 45.448 58.031 47.046 60 47.046 C 61.969 47.046 63.566 45.448 63.566 43.479 C 63.566 41.51 61.971 39.912 60 39.912 Z M 60 46.208 C 58.494 46.208 57.27 44.983 57.27 43.479 C 57.27 41.975 58.495 40.75 60 40.75 C 61.505 40.75 62.73 41.975 62.73 43.479 C 62.73 44.983 61.505 46.208 60 46.208 Z" opacity="0.25" stroke-opacity="0" stroke-miterlimit="10"/></g></g></g></g></g><g transform="matrix(1,0,0,1,672,448)"><g transform="translate(151,39) matrix(1,0,0,1,0,0) translate(-151,-39)"><g/></g><g transform="translate(151,39) matrix(1,0,0,1,0,0) translate(-151,-39)"><g/></g><g transform="translate(151,39) matrix(1,0,0,1,0,0) translate(-151,-39)"><g/></g><g transform="translate(151,39) matrix(1,0,0,1,0,0) translate(-151,-39)"><g/></g><g transform="translate(151,39) matrix(1,0,0,1,0,0) translate(-151,-39)"><g/><text fill="rgb(0, 0, 0)" stroke="none" font-family="&quot;Arial&quot;" font-size="24px" font-style="normal" font-weight="normal" text-decoration="" line-height="27px" x="3" y="21">Serveur</text><text fill="rgb(0, 0, 0)" stroke="none" font-family="&quot;Arial&quot;" font-size="24px" font-style="normal" font-weight="normal" text-decoration="" line-height="27px" x="93" y="21">Web</text></g><g transform="translate(151,39) matrix(1,0,0,1,0,0) translate(-151,-39)"><g/></g></g><g transform="matrix(1,0,0,1,800.5,413.76560992386067)"><g transform="translate(0,0)"><g transform="translate(-630.608695652174,-224.26560992386067) translate(-169.891304347826,-189.5) matrix(1,0,0,1,0,0)"><g><path fill="none" stroke="#000000" d="M 805 418.51298290493855 L 861.3020833333333 418.26560992386067" stroke-miterlimit="10" stroke-width="2"/></g></g></g></g><g transform="translate(0.5,0.5) matrix(1,0,0,1,800,11.791651245988533)"><g><g transform="translate(0,0) scale(2.940794210779449,3.628394362926518)"><g><g><path fill="#3966A0" stroke="rgb(0,0,0)" d="M 103.2 33.1 C 102.5 14.7 87.3 0 68.8 0 C 59.6 0 50.8 3.7 44.4 10.2 C 41.9 8.3 38.8 7.3 35.6 7.3 C 27.8 7.3 21.4 13.3 20.8 20.9 C 9.1 22.5 0 32.6 0 44.6 L 0 44.7 L 0 44.8 C 0 58 10.8 68.8 24 68.8 L 24 68.8 L 102 68.901 L 105 68.501 C 113.5 67.101 119.9 59.701 119.9 50.801 C 120 41.5 112.5 33.7 103.2 33.1 L 103.2 33.1 Z" stroke-opacity="0" stroke-miterlimit="10"/></g><g transform="translate(3,3)"><g transform="translate(74,33)"><g><path fill="#FFFFFF" stroke="rgb(0,0,0)" d="M 38.5 8.8 C 36.1 3.7 31 0.2 25 0.2 C 24.3 0.2 23.7 0.3 23.1 0.3 C 23.1 0.901 23 1.5 23 2.1 C 21.6 15.6 12.1 26.3 -0.2 29.9 L 25 29.9 C 25.4 29.9 25.9 29.9 26.3 29.799 L 38.5 8.8 L 38.5 8.8 Z" stroke-opacity="0" stroke-miterlimit="10"/></g></g><g><g><g><path fill="#FFFFFF" stroke="rgb(0,0,0)" d="M 96.2 24 C 92.8 10.3 80.5 0.1 65.7 0.1 C 56 0.1 47.3 4.5 41.5 11.5 C 39.3 9 36.1 7.3 32.5 7.3 C 26 7.3 20.6 12.6 20.6 19.2 C 20.6 19.7 20.6 20.2 20.7 20.7 C 9.3 20.8 0 30.2 0 41.7 L 0 41.8 L 0 41.9 C 0 53.5 9.4 62.9 21 62.9 L 73.8 62.9 L 96.2 24 L 96.2 24 Z M 23.9 62.4 L 38.7 36.7 C 39.4 38.8 39.9 41 39.9 43.3 C 39.9 52.9 33 60.8 23.9 62.4 L 23.9 62.4 Z M 33.8 31 L 43.3 14.5 C 43.9 16 44.3 17.6 44.3 19.3 C 44.3 25.3 39.7 30.3 33.8 31 L 33.8 31 Z" stroke-opacity="0" stroke-miterlimit="10"/></g></g></g></g><g><path fill="#FFFFFF" stroke="rgb(0,0,0)" d="M 103.4 65.9 C 111 65.2 117 58.8 117 51 C 117 48.7 116.5 46.6 115.6 44.7 L 103.4 65.9 L 103.4 65.9 Z" opacity="0.75" stroke-opacity="0" stroke-miterlimit="10"/></g><g><path fill="#FFFFFF" stroke="rgb(0,0,0)" d="M 36.8 34 C 42.7 33.4 47.4 28.3 47.4 22.2 C 47.4 20.5 47 18.9 46.4 17.4 L 36.8 34 L 36.8 34 Z" opacity="0.75" stroke-opacity="0" stroke-miterlimit="10"/></g><g><path fill="#FFFFFF" stroke="rgb(0,0,0)" d="M 26.9 65.4 C 36 63.799 42.9 55.9 42.9 46.299 C 42.9 43.999 42.5 41.799 41.7 39.699 L 26.9 65.4 L 26.9 65.4 Z" opacity="0.75" stroke-opacity="0" stroke-miterlimit="10"/></g><g><path fill="#FFFFFF" stroke="rgb(0,0,0)" d="M 76.8 65.9 C 89.1 62.3 98.6 51.6 100 38.1 C 100.4 34.3 100.1 30.5 99.3 27 L 76.8 65.9 L 76.8 65.9 Z" opacity="0.75" stroke-opacity="0" stroke-miterlimit="10"/></g></g></g></g></g><g transform="matrix(1,0,0,1,804,123)"><g transform="translate(595,39) matrix(1,0,0,1,0,0) translate(-595,-39)"><g/></g><g transform="translate(595,39) matrix(1,0,0,1,0,0) translate(-595,-39)"><g/></g><g transform="translate(595,39) matrix(1,0,0,1,0,0) translate(-595,-39)"><g/></g><g transform="translate(595,39) matrix(1,0,0,1,0,0) translate(-595,-39)"><g/></g><g transform="translate(595,39) matrix(1,0,0,1,0,0) translate(-595,-39)"><g/><text fill="rgb(0, 0, 0)" stroke="none" font-family="&quot;Arial&quot;" font-size="24px" font-style="normal" font-weight="normal" text-decoration="" line-height="27px" x="124" y="21">"</text><text fill="rgb(0, 0, 0)" stroke="none" font-family="&quot;Arial&quot;" font-size="24px" font-style="normal" font-weight="normal" text-decoration="" line-height="27px" x="133" y="21">Internet</text><text fill="rgb(0, 0, 0)" stroke="none" font-family="&quot;Arial&quot;" font-size="24px" font-style="normal" font-weight="normal" text-decoration="" line-height="27px" x="214" y="21">"</text></g><g transform="translate(595,39) matrix(1,0,0,1,0,0) translate(-595,-39)"><g/></g></g></g></svg>
