<svg version="1.1" xmlns="http://www.w3.org/2000/svg" xmlns:xlink="http://www.w3.org/1999/xlink" width="588" height="404"><style xmlns="http://www.w3.org/1999/xhtml"></style><defs/><g transform="translate(0,0)"><g><rect fill="#FFFFFF" stroke="none" x="0" y="0" width="588" height="404"/></g><g transform="translate(0,0) matrix(1,0,0,1,20,62)"><g><g transform="translate(0,0) scale(2.1,2.6)"><g><path fill="#fff2cc" stroke="none" d="M 0 0 L 100 0 Q 100 0 100 0 L 100 100 Q 100 100 100 100 L 0 100 Q 0 100 0 100 L 0 0 Q 0 0 0 0 Z"/><g transform="scale(0.47619047619047616,0.3846153846153846)"><path fill="none" stroke="none" d="M 0 0 L 210 0 Q 210 0 210 0 L 210 260 Q 210 260 210 260 L 0 260 Q 0 260 0 260 L 0 0 Q 0 0 0 0 Z"/><path fill="none" stroke="#333333" d="M 0 0 M 0 0 L 210 0 Q 210 0 210 0 L 210 260 Q 210 260 210 260 L 0 260 Q 0 260 0 260 L 0 0 Q 0 0 0 0 Z" stroke-miterlimit="10" stroke-width="2"/></g></g></g></g></g><g transform="matrix(1,0,0,1,32,29)"><g transform="translate(237,39) matrix(1,0,0,1,0,0) translate(-237,-39)"><g/></g><g transform="translate(237,39) matrix(1,0,0,1,0,0) translate(-237,-39)"><g/></g><g transform="translate(237,39) matrix(1,0,0,1,0,0) translate(-237,-39)"><g/></g><g transform="translate(237,39) matrix(1,0,0,1,0,0) translate(-237,-39)"><g/></g><g transform="translate(237,39) matrix(1,0,0,1,0,0) translate(-237,-39)"><g/><text fill="rgb(0, 0, 0)" stroke="none" font-family="&quot;Arial&quot;" font-size="24px" font-style="normal" font-weight="normal" text-decoration="" line-height="27px" x="25" y="21">Raspberry</text><text fill="rgb(0, 0, 0)" stroke="none" font-family="&quot;Arial&quot;" font-size="24px" font-style="normal" font-weight="normal" text-decoration="" line-height="27px" x="141" y="21">Pi</text></g><g transform="translate(237,39) matrix(1,0,0,1,0,0) translate(-237,-39)"><g/></g></g><g transform="translate(0.5,0.5) matrix(1,0,0,1,210,252)"><g><g transform="translate(0,0) scale(1.0063360773205083,1.0026839519927078) translate(0.0004398652,0)"><g><g><path fill="#660000" stroke="rgb(0,0,0)" d="M 60.077 59.362 C 69.783 49.48 75.212 37.179 75.511 26.017 C 75.518 25.757 75.514 25.499 75.515 25.239 C 75.516 24.974 75.525 24.708 75.519 24.445 C 75.434 19.175 74.173 14.203 71.645 9.915 C 70.902 7.773 69.761 5.924 68.253 4.417 C 65.362 1.527 61.2 0 56.213 0 C 46.001 0 32.854 6.376 21.623 16.717 L 21.218 16.311 C 21.906 13.85 21.233 11.146 19.402 9.315 C 18.049 7.961 16.251 7.217 14.338 7.217 C 12.425 7.217 10.627 7.962 9.274 9.315 C 6.482 12.107 6.482 16.652 9.274 19.445 C 10.62 20.79 12.41 21.531 14.315 21.531 C 14.983 21.531 15.637 21.441 16.271 21.261 L 16.674 21.665 C 0.746 38.948 -4.677 59.242 4.375 68.294 C 5.858 69.776 7.673 70.899 9.768 71.642 C 14.222 74.298 19.45 75.599 25.02 75.599 C 33.022 75.599 41.723 72.907 49.821 67.708 L 49.821 78.423 L 47.21 78.423 L 47.21 98.735 L 62.69 98.735 L 62.69 78.423 L 60.077 78.423 L 60.077 59.362 Z" stroke-opacity="0" stroke-miterlimit="10"/></g><g><path fill="#FFFFFF" stroke="rgb(0,0,0)" d="M 57.077 62.201 C 55.702 63.42 54.284 64.568 52.821 65.643 L 52.821 78.422 L 57.077 78.422 L 57.077 62.201 Z" opacity="0.93" stroke-opacity="0" stroke-miterlimit="10"/></g><g><path fill="#FFFFFF" stroke="rgb(0,0,0)" d="M 16.177 71.224 C 26.516 71.333 40.481 64.524 52.47 52.534 C 64.506 40.499 71.323 26.473 71.161 16.123 C 70.606 14.447 69.889 12.844 68.989 11.34 L 68.997 11.335 C 68.995 11.33 68.991 11.324 68.989 11.319 L 68.853 11.027 C 68.26 9.262 67.344 7.753 66.131 6.54 C 63.945 4.355 60.893 3.186 57.07 3.032 C 57.13 3.036 57.191 3.035 57.251 3.039 L 46.819 36.834 C 46.827 36.831 46.837 36.827 46.844 36.824 C 48.821 36.203 50.562 36.336 51.597 37.371 C 53.664 39.438 52.138 44.316 48.187 48.266 C 44.237 52.216 39.36 53.743 37.292 51.677 C 35.487 49.871 36.425 45.924 39.322 42.321 L 39.093 42.093 L 19.761 22.76 C 4.521 38.788 -1.432 58.244 6.496 66.173 C 7.71 67.386 9.22 68.302 10.983 68.896 L 11.275 69.031 C 11.755 69.318 12.249 69.588 12.755 69.842 C 12.758 69.844 12.762 69.846 12.765 69.848 C 13.848 70.386 14.99 70.843 16.177 71.224 Z" opacity="0.93" stroke-opacity="0" stroke-miterlimit="10"/></g><g><path fill="#FFFFFF" stroke="rgb(0,0,0)" d="M 42.978 38.848 L 34.795 10.394 C 30.668 12.972 26.56 16.146 22.695 19.824 L 42.03 39.158 L 42.259 39.388 C 42.451 39.234 42.645 39.086 42.839 38.943 C 42.886 38.91 42.932 38.882 42.978 38.848 Z" opacity="0.93" stroke-opacity="0" stroke-miterlimit="10"/></g><g><path fill="#FFFFFF" stroke="rgb(0,0,0)" d="M 57.077 58.108 L 57.516 57.669 C 67.3 47.889 72.627 35.634 72.547 24.82 C 72.523 21.777 72.066 18.85 71.161 16.123 C 71.323 26.474 64.506 40.5 52.47 52.534 C 40.481 64.524 26.516 71.334 16.177 71.225 C 18.903 72.102 21.879 72.561 24.994 72.561 C 32.817 72.561 41.226 69.793 48.862 64.738 C 48.932 64.692 49.002 64.643 49.071 64.598 C 49.532 64.288 49.993 63.973 50.448 63.649 L 51.135 63.159 C 53.226 61.617 55.219 59.925 57.077 58.112 L 57.077 58.108 Z" opacity="0.75" stroke-opacity="0" stroke-miterlimit="10"/></g><g><path fill="#FFFFFF" stroke="rgb(0,0,0)" d="M 52.821 81.423 L 51.321 81.423 L 50.209 81.423 L 50.209 95.737 L 59.69 95.737 L 59.69 81.423 L 58.577 81.423 L 57.077 81.423 L 52.821 81.423 Z" opacity="0.75" stroke-opacity="0" stroke-miterlimit="10"/></g><g><path fill="#FFFFFF" stroke="rgb(0,0,0)" d="M 42.161 6.441 C 41.909 6.555 41.653 6.677 41.399 6.795 C 41.12 6.924 40.841 7.058 40.563 7.193 C 38.704 8.102 36.822 9.143 34.936 10.305 C 34.889 10.334 34.843 10.365 34.796 10.394 L 42.979 38.848 C 44.274 37.912 45.591 37.224 46.819 36.834 L 57.253 3.038 C 57.193 3.034 57.132 3.034 57.072 3.031 C 56.788 3.02 56.509 3 56.215 3 C 51.971 2.999 47.151 4.218 42.161 6.441 Z" stroke-opacity="0" stroke-miterlimit="10"/></g><g><path fill="#FFFFFF" stroke="rgb(0,0,0)" d="M 17.88 16.615 L 18.12 16.084 C 18.839 14.488 18.51 12.664 17.282 11.437 C 16.496 10.651 15.451 10.218 14.339 10.218 C 13.228 10.218 12.182 10.651 11.396 11.437 C 9.774 13.06 9.774 15.701 11.396 17.324 C 12.593 18.52 14.5 18.855 16.044 18.161 L 16.585 17.918 C 16.827 17.745 17.064 17.564 17.282 17.347 C 17.509 17.117 17.701 16.869 17.88 16.615 Z" opacity="0.93" stroke-opacity="0" stroke-miterlimit="10"/></g><g><path fill="#FFFFFF" stroke="rgb(0,0,0)" d="M 42.991 38.895 L 42.978 38.848 C 42.932 38.881 42.885 38.909 42.839 38.943 C 42.645 39.086 42.451 39.234 42.259 39.388 L 45.837 42.965 C 46.254 43.382 46.453 43.932 46.441 44.478 C 46.453 45.005 46.261 45.536 45.859 45.938 C 45.467 46.329 44.957 46.524 44.445 46.524 C 44.301 46.524 44.16 46.505 44.021 46.475 C 43.611 46.405 43.217 46.217 42.902 45.9 L 39.322 42.32 C 36.425 45.923 35.487 49.871 37.292 51.676 C 39.359 53.742 44.236 52.215 48.187 48.265 C 52.138 44.315 53.665 39.437 51.597 37.37 C 50.562 36.334 48.821 36.201 46.844 36.823 C 46.836 36.826 46.826 36.83 46.819 36.833 L 46.804 36.876 C 45.587 37.26 44.276 37.948 42.991 38.895 Z" opacity="0.75" stroke-opacity="0" stroke-miterlimit="10"/></g></g></g></g></g><g transform="matrix(1,0,0,1,174,353)"><g transform="translate(153,39) matrix(1,0,0,1,0,0) translate(-153,-39)"><g/></g><g transform="translate(153,39) matrix(1,0,0,1,0,0) translate(-153,-39)"><g/></g><g transform="translate(153,39) matrix(1,0,0,1,0,0) translate(-153,-39)"><g/></g><g transform="translate(153,39) matrix(1,0,0,1,0,0) translate(-153,-39)"><g/></g><g transform="translate(153,39) matrix(1,0,0,1,0,0) translate(-153,-39)"><g/><text fill="rgb(0, 0, 0)" stroke="none" font-family="&quot;Arial&quot;" font-size="24px" font-style="normal" font-weight="normal" text-decoration="" line-height="27px" x="3" y="21">Point</text><text fill="rgb(0, 0, 0)" stroke="none" font-family="&quot;Arial&quot;" font-size="24px" font-style="normal" font-weight="normal" text-decoration="" line-height="27px" x="64" y="21">d</text><text fill="rgb(0, 0, 0)" stroke="none" font-family="&quot;Arial&quot;" font-size="24px" font-style="normal" font-weight="normal" text-decoration="" line-height="27px" x="77" y="21">’</text><text fill="rgb(0, 0, 0)" stroke="none" font-family="&quot;Arial&quot;" font-size="24px" font-style="normal" font-weight="normal" text-decoration="" line-height="27px" x="82" y="21">acc</text><text fill="rgb(0, 0, 0)" stroke="none" font-family="&quot;Arial&quot;" font-size="24px" font-style="normal" font-weight="normal" text-decoration="" line-height="27px" x="119" y="21">è</text><text fill="rgb(0, 0, 0)" stroke="none" font-family="&quot;Arial&quot;" font-size="24px" font-style="normal" font-weight="normal" text-decoration="" line-height="27px" x="132" y="21">s</text></g><g transform="translate(153,39) matrix(1,0,0,1,0,0) translate(-153,-39)"><g/></g></g><g transform="translate(0.5,0.5) matrix(1,0,0,1,210,32)"><g><g transform="translate(0,0) scale(1.0063360773205083,1.0026839519927078) translate(0.0004398652,0)"><g><g><path fill="#3966A0" stroke="rgb(0,0,0)" d="M 60.077 59.362 C 69.783 49.48 75.212 37.179 75.511 26.017 C 75.518 25.757 75.514 25.499 75.515 25.239 C 75.516 24.974 75.525 24.708 75.519 24.445 C 75.434 19.175 74.173 14.203 71.645 9.915 C 70.902 7.773 69.761 5.924 68.253 4.417 C 65.362 1.527 61.2 0 56.213 0 C 46.001 0 32.854 6.376 21.623 16.717 L 21.218 16.311 C 21.906 13.85 21.233 11.146 19.402 9.315 C 18.049 7.961 16.251 7.217 14.338 7.217 C 12.425 7.217 10.627 7.962 9.274 9.315 C 6.482 12.107 6.482 16.652 9.274 19.445 C 10.62 20.79 12.41 21.531 14.315 21.531 C 14.983 21.531 15.637 21.441 16.271 21.261 L 16.674 21.665 C 0.746 38.948 -4.677 59.242 4.375 68.294 C 5.858 69.776 7.673 70.899 9.768 71.642 C 14.222 74.298 19.45 75.599 25.02 75.599 C 33.022 75.599 41.723 72.907 49.821 67.708 L 49.821 78.423 L 47.21 78.423 L 47.21 98.735 L 62.69 98.735 L 62.69 78.423 L 60.077 78.423 L 60.077 59.362 Z" stroke-opacity="0" stroke-miterlimit="10"/></g><g><path fill="#FFFFFF" stroke="rgb(0,0,0)" d="M 57.077 62.201 C 55.702 63.42 54.284 64.568 52.821 65.643 L 52.821 78.422 L 57.077 78.422 L 57.077 62.201 Z" opacity="0.93" stroke-opacity="0" stroke-miterlimit="10"/></g><g><path fill="#FFFFFF" stroke="rgb(0,0,0)" d="M 16.177 71.224 C 26.516 71.333 40.481 64.524 52.47 52.534 C 64.506 40.499 71.323 26.473 71.161 16.123 C 70.606 14.447 69.889 12.844 68.989 11.34 L 68.997 11.335 C 68.995 11.33 68.991 11.324 68.989 11.319 L 68.853 11.027 C 68.26 9.262 67.344 7.753 66.131 6.54 C 63.945 4.355 60.893 3.186 57.07 3.032 C 57.13 3.036 57.191 3.035 57.251 3.039 L 46.819 36.834 C 46.827 36.831 46.837 36.827 46.844 36.824 C 48.821 36.203 50.562 36.336 51.597 37.371 C 53.664 39.438 52.138 44.316 48.187 48.266 C 44.237 52.216 39.36 53.743 37.292 51.677 C 35.487 49.871 36.425 45.924 39.322 42.321 L 39.093 42.093 L 19.761 22.76 C 4.521 38.788 -1.432 58.244 6.496 66.173 C 7.71 67.386 9.22 68.302 10.983 68.896 L 11.275 69.031 C 11.755 69.318 12.249 69.588 12.755 69.842 C 12.758 69.844 12.762 69.846 12.765 69.848 C 13.848 70.386 14.99 70.843 16.177 71.224 Z" opacity="0.93" stroke-opacity="0" stroke-miterlimit="10"/></g><g><path fill="#FFFFFF" stroke="rgb(0,0,0)" d="M 42.978 38.848 L 34.795 10.394 C 30.668 12.972 26.56 16.146 22.695 19.824 L 42.03 39.158 L 42.259 39.388 C 42.451 39.234 42.645 39.086 42.839 38.943 C 42.886 38.91 42.932 38.882 42.978 38.848 Z" opacity="0.93" stroke-opacity="0" stroke-miterlimit="10"/></g><g><path fill="#FFFFFF" stroke="rgb(0,0,0)" d="M 57.077 58.108 L 57.516 57.669 C 67.3 47.889 72.627 35.634 72.547 24.82 C 72.523 21.777 72.066 18.85 71.161 16.123 C 71.323 26.474 64.506 40.5 52.47 52.534 C 40.481 64.524 26.516 71.334 16.177 71.225 C 18.903 72.102 21.879 72.561 24.994 72.561 C 32.817 72.561 41.226 69.793 48.862 64.738 C 48.932 64.692 49.002 64.643 49.071 64.598 C 49.532 64.288 49.993 63.973 50.448 63.649 L 51.135 63.159 C 53.226 61.617 55.219 59.925 57.077 58.112 L 57.077 58.108 Z" opacity="0.75" stroke-opacity="0" stroke-miterlimit="10"/></g><g><path fill="#FFFFFF" stroke="rgb(0,0,0)" d="M 52.821 81.423 L 51.321 81.423 L 50.209 81.423 L 50.209 95.737 L 59.69 95.737 L 59.69 81.423 L 58.577 81.423 L 57.077 81.423 L 52.821 81.423 Z" opacity="0.75" stroke-opacity="0" stroke-miterlimit="10"/></g><g><path fill="#FFFFFF" stroke="rgb(0,0,0)" d="M 42.161 6.441 C 41.909 6.555 41.653 6.677 41.399 6.795 C 41.12 6.924 40.841 7.058 40.563 7.193 C 38.704 8.102 36.822 9.143 34.936 10.305 C 34.889 10.334 34.843 10.365 34.796 10.394 L 42.979 38.848 C 44.274 37.912 45.591 37.224 46.819 36.834 L 57.253 3.038 C 57.193 3.034 57.132 3.034 57.072 3.031 C 56.788 3.02 56.509 3 56.215 3 C 51.971 2.999 47.151 4.218 42.161 6.441 Z" stroke-opacity="0" stroke-miterlimit="10"/></g><g><path fill="#FFFFFF" stroke="rgb(0,0,0)" d="M 17.88 16.615 L 18.12 16.084 C 18.839 14.488 18.51 12.664 17.282 11.437 C 16.496 10.651 15.451 10.218 14.339 10.218 C 13.228 10.218 12.182 10.651 11.396 11.437 C 9.774 13.06 9.774 15.701 11.396 17.324 C 12.593 18.52 14.5 18.855 16.044 18.161 L 16.585 17.918 C 16.827 17.745 17.064 17.564 17.282 17.347 C 17.509 17.117 17.701 16.869 17.88 16.615 Z" opacity="0.93" stroke-opacity="0" stroke-miterlimit="10"/></g><g><path fill="#FFFFFF" stroke="rgb(0,0,0)" d="M 42.991 38.895 L 42.978 38.848 C 42.932 38.881 42.885 38.909 42.839 38.943 C 42.645 39.086 42.451 39.234 42.259 39.388 L 45.837 42.965 C 46.254 43.382 46.453 43.932 46.441 44.478 C 46.453 45.005 46.261 45.536 45.859 45.938 C 45.467 46.329 44.957 46.524 44.445 46.524 C 44.301 46.524 44.16 46.505 44.021 46.475 C 43.611 46.405 43.217 46.217 42.902 45.9 L 39.322 42.32 C 36.425 45.923 35.487 49.871 37.292 51.676 C 39.359 53.742 44.236 52.215 48.187 48.265 C 52.138 44.315 53.665 39.437 51.597 37.37 C 50.562 36.334 48.821 36.201 46.844 36.823 C 46.836 36.826 46.826 36.83 46.819 36.833 L 46.804 36.876 C 45.587 37.26 44.276 37.948 42.991 38.895 Z" opacity="0.75" stroke-opacity="0" stroke-miterlimit="10"/></g></g></g></g></g><g transform="translate(0.5,0.5) matrix(1,0,0,1,460,20)"><g><g transform="translate(0,0) scale(1,1.0017530678687703)"><g><g><path fill="#3966A0" stroke="rgb(0,0,0)" d="M 98.5 20.418 L 90.477 20.418 L 90.477 4 C 90.477 1.794 88.682 0 86.477 0 C 84.27 0 82.477 1.794 82.477 4 L 82.477 20.418 L 20.45 20.418 L 20.45 4 C 20.45 1.794 18.656 0 16.45 0 C 14.244 0 12.45 1.794 12.45 4 L 12.45 20.418 L 4.5 20.418 C 2.019 20.418 0 22.437 0 24.918 L 0 44.892 C 0 47.148 1.669 49.022 3.837 49.342 L 4.892 49.408 L 4.892 55.881 L 27.936 55.881 L 27.936 49.391 L 74.917 49.391 L 74.917 55.881 L 97.961 55.902 L 97.961 49.389 L 98.5 49.389 C 100.98 49.389 103 47.368 103 44.889 L 103 24.918 C 103 22.436 100.98 20.418 98.5 20.418 Z" stroke-opacity="0" stroke-miterlimit="10"/></g><g><path fill="#FFFFFF" stroke="rgb(0,0,0)" d="M 15.45 3.992 L 15.45 20.418 L 17.45 20.418 L 17.45 3.992 C 17.45 3.441 17.002 2.992 16.45 2.992 C 15.898 2.992 15.45 3.441 15.45 3.992 Z" opacity="0.7" stroke-opacity="0" stroke-miterlimit="10"/></g><g><path fill="#FFFFFF" stroke="rgb(0,0,0)" d="M 87.477 3.992 C 87.477 3.441 87.03 2.992 86.477 2.992 C 85.925 2.992 85.477 3.441 85.477 3.992 L 85.477 20.418 L 87.477 20.418 L 87.477 3.992 Z" opacity="0.7" stroke-opacity="0" stroke-miterlimit="10"/></g><g><path fill="#FFFFFF" stroke="rgb(0,0,0)" d="M 4.5 46.363 L 6.724 46.363 L 7.892 46.363 L 24.937 46.363 L 26.768 46.363 L 76.418 46.363 L 77.918 46.363 L 94.962 46.363 L 96.462 46.363 L 98.5 46.363 C 99.327 46.363 100 45.69 100 44.863 L 100 24.89 C 100 24.063 99.327 23.39 98.5 23.39 L 4.5 23.39 C 3.673 23.39 3 24.063 3 24.89 L 3 44.864 C 3 45.69 3.673 46.363 4.5 46.363 Z M 90.208 31.632 C 92.001 31.632 93.455 33.085 93.455 34.878 C 93.455 36.671 92.001 38.126 90.208 38.126 C 88.415 38.126 86.961 36.671 86.961 34.878 C 86.961 33.085 88.415 31.632 90.208 31.632 Z M 76.932 31.632 C 78.725 31.632 80.18 33.085 80.18 34.878 C 80.18 36.671 78.725 38.126 76.932 38.126 C 75.139 38.126 73.686 36.671 73.686 34.878 C 73.686 33.085 75.139 31.632 76.932 31.632 Z M 63.656 31.632 C 65.449 31.632 66.902 33.085 66.902 34.878 C 66.902 36.671 65.449 38.126 63.656 38.126 C 61.863 38.126 60.409 36.671 60.409 34.878 C 60.41 33.085 61.863 31.632 63.656 31.632 Z M 50.381 31.632 C 52.174 31.632 53.628 33.085 53.628 34.878 C 53.628 36.671 52.174 38.126 50.381 38.126 C 48.588 38.126 47.134 36.671 47.134 34.878 C 47.134 33.085 48.588 31.632 50.381 31.632 Z M 28.16 28.737 L 31.16 28.737 L 31.16 41.017 L 28.16 41.017 L 28.16 28.737 Z M 21.703 28.737 L 24.703 28.737 L 24.703 41.017 L 21.703 41.017 L 21.703 28.737 Z M 15.245 28.737 L 18.245 28.737 L 18.245 41.017 L 15.245 41.017 L 15.245 28.737 Z M 8.788 28.737 L 11.788 28.737 L 11.788 41.017 L 8.788 41.017 L 8.788 28.737 Z" opacity="0.93" stroke-opacity="0" stroke-miterlimit="10"/></g><g><path fill="#FFFFFF" stroke="rgb(0,0,0)" d="M 7.892 49.363 L 24.937 49.363 Q 24.937 49.363 24.937 49.363 L 24.937 52.857 Q 24.937 52.857 24.937 52.857 L 7.892 52.857 Q 7.892 52.857 7.892 52.857 L 7.892 49.363 Q 7.892 49.363 7.892 49.363 Z" opacity="0.7" stroke-opacity="0" stroke-miterlimit="10"/></g><g><path fill="#FFFFFF" stroke="rgb(0,0,0)" d="M 77.918 49.363 L 94.962 49.363 Q 94.962 49.363 94.962 49.363 L 94.962 52.857 Q 94.962 52.857 94.962 52.857 L 77.918 52.857 Q 77.918 52.857 77.918 52.857 L 77.918 49.363 Q 77.918 49.363 77.918 49.363 Z" opacity="0.7" stroke-opacity="0" stroke-miterlimit="10"/></g><g><path fill="#FFFFFF" stroke="rgb(0,0,0)" d="M 80.179 34.879 A 3.247 3.247 0 1 0 80.17899837650013 34.88224699945883 Z" opacity="0.5" stroke-opacity="0" stroke-miterlimit="10"/></g><g><path fill="#FFFFFF" stroke="rgb(0,0,0)" d="M 66.90299999999999 34.879 A 3.247 3.247 0 1 0 66.90299837650014 34.88224699945883 Z" opacity="0.5" stroke-opacity="0" stroke-miterlimit="10"/></g><g><path fill="#FFFFFF" stroke="rgb(0,0,0)" d="M 53.628 34.879 A 3.247 3.247 0 1 0 53.62799837650014 34.88224699945883 Z" opacity="0.5" stroke-opacity="0" stroke-miterlimit="10"/></g></g></g></g></g><g transform="matrix(1,0,0,1,468,78)"><g transform="translate(93,39) matrix(1,0,0,1,0,0) translate(-93,-39)"><g/></g><g transform="translate(93,39) matrix(1,0,0,1,0,0) translate(-93,-39)"><g/></g><g transform="translate(93,39) matrix(1,0,0,1,0,0) translate(-93,-39)"><g/></g><g transform="translate(93,39) matrix(1,0,0,1,0,0) translate(-93,-39)"><g/></g><g transform="translate(93,39) matrix(1,0,0,1,0,0) translate(-93,-39)"><g/><text fill="rgb(0, 0, 0)" stroke="none" font-family="&quot;Arial&quot;" font-size="24px" font-style="normal" font-weight="normal" text-decoration="" line-height="27px" x="3" y="21">Internet</text></g><g transform="translate(93,39) matrix(1,0,0,1,0,0) translate(-93,-39)"><g/></g></g><g transform="translate(0.5,0.5) matrix(6.123233995736766e-17,1,-1,6.123233995736766e-17,442,19.999999999999996)"><g><g transform="translate(0,0) scale(1.191594492450256,1.2987012987012987) translate(0.04245468,0)"><g><g><path fill="#3966A0" stroke="rgb(0,0,0)" d="M 70 44.1 C 69.3 42.8 67.8 42.1 65.9 42.1 L 34.7 42.3 C 33.8 42.3 33 42 32.5 41.4 C 32 40.8 31.8 40 31.9 39.1 L 36.8 3.9 C 37 2.2 36.9 1.2 36.3 0.6 C 36 0.2 35.5 0 35 0 C 33.8 0 32.9 1.2 32.3 2.4 L 0.7 59.6 C -0.2 61.2 -0.3 62.9 0.5 64.2 C 1.3 65.5 2.8 66.2 4.6 66.2 L 31.5 66.3 C 32.4 66.3 33.2 66.6 33.8 67.3 C 34.4 67.9 34.6 68.8 34.5 69.7 L 30.9 103.9 C 30.7 105.5 30.9 106.6 31.5 107.2 C 31.9 107.6 32.4 107.8 32.9 107.8 C 34.2 107.8 35.1 106.6 35.7 105.5 L 69.6 48.6 C 70.6 47 70.7 45.4 70 44.1 Z" stroke-opacity="0" stroke-miterlimit="10"/></g><g><path fill="#FFFFFF" stroke="rgb(0,0,0)" d="M 65.9 45.1 L 34.7 45.3 C 32.9 45.3 31.3 44.6 30.2 43.3 C 29.1 42 28.6 40.4 28.9 38.6 L 33.3 6.5 L 3.3 61.1 C 2.9 61.8 2.8 62.4 3 62.7 C 3.2 63 3.8 63.3 4.5 63.3 L 31.4 63.4 C 33.2 63.4 34.8 64.1 35.9 65.4 C 37 66.7 37.6 68.3 37.4 70.1 L 34 102.6 L 67 47.3 C 67.4 46.7 67.5 46.1 67.3 45.8 C 67.2 45.3 66.6 45.1 65.9 45.1 Z" opacity="0.93" stroke-opacity="0" stroke-miterlimit="10"/></g></g></g></g></g><g transform="translate(0.5,0.5) matrix(6.123233995736766e-17,1,-1,6.123233995736766e-17,426,280)"><g><g transform="translate(0,0) scale(1.191594492450256,1.2987012987012987) translate(0.04245468,0)"><g><g><path fill="#5b0f00" stroke="rgb(0,0,0)" d="M 70 44.1 C 69.3 42.8 67.8 42.1 65.9 42.1 L 34.7 42.3 C 33.8 42.3 33 42 32.5 41.4 C 32 40.8 31.8 40 31.9 39.1 L 36.8 3.9 C 37 2.2 36.9 1.2 36.3 0.6 C 36 0.2 35.5 0 35 0 C 33.8 0 32.9 1.2 32.3 2.4 L 0.7 59.6 C -0.2 61.2 -0.3 62.9 0.5 64.2 C 1.3 65.5 2.8 66.2 4.6 66.2 L 31.5 66.3 C 32.4 66.3 33.2 66.6 33.8 67.3 C 34.4 67.9 34.6 68.8 34.5 69.7 L 30.9 103.9 C 30.7 105.5 30.9 106.6 31.5 107.2 C 31.9 107.6 32.4 107.8 32.9 107.8 C 34.2 107.8 35.1 106.6 35.7 105.5 L 69.6 48.6 C 70.6 47 70.7 45.4 70 44.1 Z" stroke-opacity="0" stroke-miterlimit="10"/></g><g><path fill="#FFFFFF" stroke="rgb(0,0,0)" d="M 65.9 45.1 L 34.7 45.3 C 32.9 45.3 31.3 44.6 30.2 43.3 C 29.1 42 28.6 40.4 28.9 38.6 L 33.3 6.5 L 3.3 61.1 C 2.9 61.8 2.8 62.4 3 62.7 C 3.2 63 3.8 63.3 4.5 63.3 L 31.4 63.4 C 33.2 63.4 34.8 64.1 35.9 65.4 C 37 66.7 37.6 68.3 37.4 70.1 L 34 102.6 L 67 47.3 C 67.4 46.7 67.5 46.1 67.3 45.8 C 67.2 45.3 66.6 45.1 65.9 45.1 Z" opacity="0.93" stroke-opacity="0" stroke-miterlimit="10"/></g></g></g></g></g><g transform="translate(0.5,0.5) matrix(1,0,0,1,442,280)"><g><g transform="translate(0,0) scale(1,1.004405994294974)"><g><path fill="#5b0f00" stroke="rgb(0,0,0)" d="M 123 62.299 L 112.006 62.299 L 112.006 5 C 112.006 2.243 109.764 0 107.006 0 L 18.993 0 C 16.236 0 13.993 2.243 13.993 5 L 13.993 62.299 L 3 62.299 L 0 62.299 L 0 65.299 L 0 68.485 C 0 71.954 2.328 74.671 5.3 74.671 L 120.699 74.671 C 123.671 74.671 126 71.954 126 68.485 L 126 65.299 L 126 62.299 L 123 62.299 Z" stroke-opacity="0" stroke-miterlimit="10"/></g><g><g><path fill="#FFFFFF" stroke="rgb(0,0,0)" d="M 107.027 2.999 L 19.014 2.999 C 17.914 2.999 17.014 3.899 17.014 4.999 L 17.014 62.299 L 109.027 62.299 L 109.027 4.999 C 109.027 3.899 108.127 2.999 107.027 2.999 Z M 103.275 60.506 L 33.613 60.506 L 22.765 60.506 L 22.765 8.75 L 63.495 8.75 L 103.275 8.75 L 103.275 60.506 Z" opacity="0.93" stroke-opacity="0" stroke-miterlimit="10"/></g></g><g><g><path fill="#FFFFFF" stroke="rgb(0,0,0)" d="M 112.607 65.299 L 112.607 65.299 L 71.455 65.301 L 71.455 65.893 C 71.455 66.768 70.937 67.485 70.305 67.485 L 56.12 67.485 C 55.487 67.485 54.97 66.768 54.97 65.893 L 54.97 65.301 L 14.521 65.301 L 14.521 65.299 L 3.021 65.299 L 3.021 68.485 C 3.021 70.235 4.056 71.669 5.321 71.669 L 120.721 71.669 C 121.985 71.669 123.022 70.235 123.022 68.485 L 123.022 65.299 L 112.607 65.299 Z" opacity="0.85" stroke-opacity="0" stroke-miterlimit="10"/></g></g><g><path fill="#FFFFFF" stroke="rgb(0,0,0)" d="M 63.495 8.75 L 22.765 8.75 L 22.765 60.506 L 33.613 60.506 L 63.495 8.75 Z" opacity="0.1" stroke-opacity="0" stroke-miterlimit="10"/></g></g></g></g><g transform="matrix(1,0,0,1,463,357)"><g transform="translate(90,39) matrix(1,0,0,1,0,0) translate(-90,-39)"><g/></g><g transform="translate(90,39) matrix(1,0,0,1,0,0) translate(-90,-39)"><g/></g><g transform="translate(90,39) matrix(1,0,0,1,0,0) translate(-90,-39)"><g/></g><g transform="translate(90,39) matrix(1,0,0,1,0,0) translate(-90,-39)"><g/></g><g transform="translate(90,39) matrix(1,0,0,1,0,0) translate(-90,-39)"><g/><text fill="rgb(0, 0, 0)" stroke="none" font-family="&quot;Arial&quot;" font-size="24px" font-style="normal" font-weight="normal" text-decoration="" line-height="27px" x="3" y="21">Victime</text></g><g transform="translate(90,39) matrix(1,0,0,1,0,0) translate(-90,-39)"><g/></g></g><g transform="matrix(1,0,0,1,115.5,75)"><g transform="translate(0,0)"><g transform="translate(281,152) translate(-396.5,-227) matrix(1,0,0,1,0,0)"><g><path fill="none" stroke="#000000" d="M 210 81.5 Q 122 81.5 122 191.5 Q 122 301.5 210 301.5" stroke-miterlimit="10" stroke-width="6"/></g></g></g></g><g transform="translate(0,0) matrix(1,0,0,1,30,104.00000000000001)"><g><g transform="translate(0,0) scale(1.34,1.34)"><g><path fill="#f4cccc" stroke="none" d="M 100 50 A 50 50 0 1 0 99.99997500000208 50.04999999166668 Z"/><g transform="scale(0.7462686567164178,0.7462686567164178)"><path fill="none" stroke="#333333" d="M 67 0 M 67 0 C 104.0030749 0 134 29.996925100000006 134 67 C 134 104.0030749 104.0030749 134 67 134 C 29.996925100000006 134 0 104.0030749 0 67 C 0 29.996925100000006 29.996925100000006 0 67 0 Z" stroke-miterlimit="10" stroke-width="2"/></g></g></g></g></g><g transform="matrix(1,0,0,1,41,158)"><g transform="translate(118,39) matrix(1,0,0,1,0,0) translate(-118,-39)"><g/></g><g transform="translate(118,39) matrix(1,0,0,1,0,0) translate(-118,-39)"><g/></g><g transform="translate(118,39) matrix(1,0,0,1,0,0) translate(-118,-39)"><g/></g><g transform="translate(118,39) matrix(1,0,0,1,0,0) translate(-118,-39)"><g/></g><g transform="translate(118,39) matrix(1,0,0,1,0,0) translate(-118,-39)"><g/><text fill="rgb(0, 0, 0)" stroke="none" font-family="&quot;Arial&quot;" font-size="24px" font-style="normal" font-weight="normal" text-decoration="" line-height="27px" x="2" y="21">mitmproxy</text></g><g transform="translate(118,39) matrix(1,0,0,1,0,0) translate(-118,-39)"><g/></g></g><g transform="translate(0.5,0.5) matrix(1,0,0,1,31,212.5)"><g><g transform="translate(0,0) scale(1.23,0.51)"><g><path fill="#e6b8af" stroke="none" d="M 0 0 L 100 0 Q 100 0 100 0 L 100 100 Q 100 100 100 100 L 0 100 Q 0 100 0 100 L 0 0 Q 0 0 0 0 Z"/><g transform="scale(0.8130081300813008,1.9607843137254901)"><path fill="none" stroke="none" d="M 0 0 L 123 0 Q 123 0 123 0 L 123 51 Q 123 51 123 51 L 0 51 Q 0 51 0 51 L 0 0 Q 0 0 0 0 Z"/><path fill="none" stroke="#000000" d="M 0 0 M 0 0 L 123 0 Q 123 0 123 0 L 123 51 Q 123 51 123 51 L 0 51 Q 0 51 0 51 L 0 0 Q 0 0 0 0 Z" stroke-miterlimit="10"/></g></g></g></g></g><g transform="matrix(1,0,0,1,41,211)"><g transform="translate(124,66) matrix(1,0,0,1,0,0) translate(-124,-66)"><g/></g><g transform="translate(124,66) matrix(1,0,0,1,0,0) translate(-124,-66)"><g/></g><g transform="translate(124,66) matrix(1,0,0,1,0,0) translate(-124,-66)"><g/></g><g transform="translate(124,66) matrix(1,0,0,1,0,0) translate(-124,-66)"><g/></g><g transform="translate(124,66) matrix(1,0,0,1,0,0) translate(-124,-66)"><g/><text fill="rgb(0, 0, 0)" stroke="none" font-family="&quot;Arial&quot;" font-size="24px" font-style="normal" font-weight="normal" text-decoration="" line-height="27px" x="9" y="21">injection</text><text fill="rgb(0, 0, 0)" stroke="none" font-family="&quot;Arial&quot;" font-size="24px" font-style="normal" font-weight="normal" text-decoration="" line-height="27px" x="7" y="49">de</text><text fill="rgb(0, 0, 0)" stroke="none" font-family="&quot;Arial&quot;" font-size="24px" font-style="normal" font-weight="normal" text-decoration="" line-height="27px" x="40" y="49">script</text></g><g transform="translate(124,66) matrix(1,0,0,1,0,0) translate(-124,-66)"><g/></g></g></g></svg>